<?xml version="1.0" encoding="utf-8"?>
<!-- Generator: Adobe Illustrator 18.0.0, SVG Export Plug-In . SVG Version: 6.00 Build 0)  -->
<!DOCTYPE svg PUBLIC "-//W3C//DTD SVG 1.0//EN" "http://www.w3.org/TR/2001/REC-SVG-20010904/DTD/svg10.dtd">
<svg version="1.0" id="图层_1" xmlns="http://www.w3.org/2000/svg" xmlns:xlink="http://www.w3.org/1999/xlink" x="0px" y="0px"
	 viewBox="0 0 200 42" enable-background="new 0 0 200 42" xml:space="preserve">
<path fill="#FF2525" d="M99,20.6c-0.1-0.1-0.2-0.1-0.3-0.1h-0.1c-0.2,0.1-0.5,0.2-0.7,0.4c-0.2,0.2-0.5,0.4-0.7,0.7
	c-0.2,0.2-0.4,0.5-0.5,0.7c-0.1,0.3-0.2,0.5-0.2,0.7c0,0.1,0.1,0.2,0.2,0.3l0.1,0.1c-0.1,0.2-0.3,0.3-0.3,0.4
	c-0.1,0.1-0.1,0.2-0.1,0.3s0.1,0.2,0.2,0.3h0.1c0.1,0,0.2,0,0.3-0.1c0.2-0.1,0.4-0.3,0.7-0.6c0.2-0.3,0.5-0.5,0.7-0.9
	c0.2-0.3,0.4-0.6,0.5-0.9c0.2-0.3,0.2-0.6,0.3-0.9C99.2,20.8,99.1,20.7,99,20.6z"/>
<g>
	<path fill="#FF2525" d="M12.8,7.1c0.1,0,0.2,0,0.3,0c0.4,0,0.9-0.1,1.4-0.2s1.1-0.2,1.6-0.4c0.5-0.2,1.1-0.3,1.6-0.5s1-0.4,1.5-0.6
		c0.2-0.1,0.5-0.2,0.6-0.2c0.2-0.1,0.3-0.1,0.4-0.1s0.2,0,0.3-0.1c0.1,0,0.2,0,0.3,0c0.2,0,0.5-0.1,0.6-0.3c0.1-0.2,0-0.4-0.2-0.6
		c-0.2-0.2-0.4-0.4-0.5-0.6C20.5,3.3,20.3,3.2,20,3c-0.3-0.2-0.4-0.2-0.5-0.2h-0.1l-0.1,0.1c-0.1,0.1,0,0.3,0.2,0.6
		c0,0.1,0.1,0.2,0.1,0.2s0,0-0.1,0.1S19.3,4,19.1,4.1c-0.2,0.1-0.5,0.3-0.9,0.5c-0.8,0.4-1.6,0.7-2.4,1C14.9,5.9,14,6.2,13,6.4
		c-0.5,0.1-0.6,0.2-0.7,0.3v0.1L12.5,7C12.6,7.1,12.7,7.1,12.8,7.1z"/>
	<path fill="#FF2525" d="M26.9,25.7c-0.2-0.2-0.5-0.3-0.7-0.5c-0.2-0.1-0.5-0.3-0.7-0.4c-0.3-0.1-0.6-0.3-0.9-0.4s-0.7-0.3-1.2-0.5
		c-0.3-0.1-0.6-0.3-0.9-0.4s-0.6-0.3-0.9-0.5s-0.7-0.4-1.1-0.6s-0.8-0.5-1.2-0.8c0.2-0.3,0.4-0.6,0.6-0.9c0.2-0.4,0.4-0.8,0.6-1.3
		c0.1-0.3,0.3-0.6,0.4-0.9c0.1-0.2,0.2-0.4,0.4-0.7c0.2-0.4,0.3-0.7,0.2-0.9c-0.1-0.2-0.3-0.5-0.5-0.7c-0.4-0.4-0.6-0.5-0.9-0.5
		c-0.2,0-0.4,0.1-0.6,0.3c-0.1,0.1-0.3,0.2-0.4,0.3c-0.1,0.1-0.2,0.2-0.3,0.3c-0.1,0.1-0.3,0.2-0.5,0.3c-0.2,0.1-0.4,0.2-0.7,0.4
		c-0.6,0.4-1.2,0.6-1.7,0.7c0.2-0.3,0.3-0.6,0.5-0.9c0.2-0.4,0.4-0.8,0.6-1.3c0.1-0.2,0.2-0.4,0.3-0.6c0.3-0.1,0.5-0.2,0.8-0.3
		s0.6-0.2,0.9-0.3c0.4-0.1,0.8-0.2,1-0.3c0.2,0,0.4,0,0.6,0c0.1,0,0.2,0,0.3,0c0.1,0,0.2,0,0.3-0.1c0-0.1,0.1-0.1,0.1-0.2
		c0-0.1,0-0.1-0.1-0.2c0.1,0,0.3,0,0.6,0c0.8,0,1.3,0,1.8,0c0.2,0,0.5-0.1,0.7-0.1s0.5-0.1,0.7-0.2c0.3-0.1,0.5-0.1,0.7-0.1
		s0.4,0,0.7-0.1c0.3,0,0.5-0.2,0.7-0.4c0.1-0.2,0.1-0.6-0.2-1c-0.2-0.3-0.4-0.6-0.6-0.8s-0.4-0.4-0.6-0.5s-0.5-0.2-0.8-0.2
		s-0.6,0-1,0c-0.7,0-1.4,0.1-2.1,0.1c-0.6,0-1.2,0.1-1.8,0.2c0.4-0.4,0.7-0.8,0.9-1.1c0.3-0.4,0.5-0.7,0.6-1s0.2-0.6,0.1-0.8
		c0-0.2-0.1-0.4-0.2-0.6c-0.2-0.3-0.4-0.6-0.6-0.8c-0.1,0-0.4-0.2-0.8-0.4s-0.5-0.2-0.6-0.2l-0.2,0.1V6c0,0.1,0,0.2,0.3,0.4
		C19.8,6.6,20,6.8,20.1,7s0.3,0.4,0.4,0.6c0,0.1,0.1,0.2,0.1,0.3c0,0.1,0,0.2-0.2,0.5c-0.1,0.2-0.3,0.6-0.5,1s-0.6,0.9-1,1.5
		c-0.4,0-0.8,0.1-1.2,0.2c-0.4,0.1-0.8,0.1-1.3,0.2c-0.3,0.1-0.6,0.1-0.9,0.2c-0.2,0.1-0.4,0.1-0.7,0.2v-0.1c0-0.1,0-0.2,0-0.3
		c0-0.4,0-0.8,0.1-1.1c0-0.3,0-0.6,0.1-0.8c0-0.2,0.1-0.4,0.1-0.5s0.1-0.2,0.1-0.3c0.3-0.5,0.6-0.7,0.9-0.7c0.1,0,0.3,0,0.5,0.6
		c0.1,0.5,0.2,0.8,0.3,1.1c0.1,0.3,0.2,0.5,0.3,0.7c0.1,0.2,0.2,0.3,0.3,0.4c0.1,0,0.2,0.1,0.3,0.1h0.1c0.3-0.1,0.4-0.3,0.4-0.6
		c0-0.2,0-0.4-0.1-0.7C18,9.3,18,9.2,18,9.1C18,9,18,9,18.1,8.9s0.1-0.2,0.2-0.3s0.2-0.3,0.3-0.5c0.1-0.1,0.2-0.3,0.1-0.4l-0.1-0.1
		h-0.1c-0.1,0-0.2,0.1-0.3,0.2C18,8,17.9,8.1,17.8,8.2c-0.1,0.1-0.2,0.1-0.2,0.1s0,0-0.1,0s-0.1-0.1-0.2-0.2
		c-0.6-0.7-1.1-0.9-1.5-0.8S15,7.8,14.6,8.4c-0.1,0.2-0.3,0.5-0.3,0.8c-0.1,0.2-0.1,0.5-0.2,0.8c-0.3-0.4-0.8-0.8-1.5-1.1
		C12.2,8.7,12,8.7,12,8.7c-0.1,0-0.2,0.1-0.2,0.1c-0.1,0.2,0.1,0.4,0.5,0.7c0.3,0.2,0.6,0.5,0.8,0.9s0.4,0.9,0.5,1.5
		c0,0,0,0.1,0,0.2c-1.1,0.3-1.8,0.7-2.3,1.1c-0.3,0.3-0.5,0.4-0.6,0.4v-0.1c-0.1-0.4-0.2-0.7-0.3-0.9s-0.2-0.3-0.3-0.5
		c-0.2-0.2-0.3-0.3-0.5-0.3H9.5c-0.1,0-0.1,0.1-0.2,0.1c-0.1,0.1,0,0.3,0.1,0.5s0.2,0.5,0.2,0.7s0,0.5-0.1,0.9
		c-0.1,0.3-0.2,0.6-0.3,0.8S9,15.2,8.8,15.4c-0.2,0.2-0.3,0.4-0.3,0.7c0,0.2,0,0.5,0.1,0.9c0.2,0.7,0.3,0.9,0.5,0.9l0,0
		c0.2,0,0.3-0.3,0.4-0.9c0.1-0.6,0.3-1.1,0.6-1.5s0.7-0.8,1.1-1.2c0.2-0.2,0.5-0.4,0.7-0.5s0.5-0.3,0.9-0.4c0.4-0.1,0.8-0.3,1.2-0.4
		c0.5-0.1,1-0.2,1.6-0.4l0.2,0.2c0.2,0.1,0.3,0.3,0.4,0.4c0.1,0.1,0.1,0.2,0.1,0.3s0,0.2,0,0.3s-0.1,0.3-0.2,0.5
		c0,0.1-0.1,0.1-0.1,0.2c0,0,0,0,0,0.1c-0.5,0.2-0.9,0.4-1.4,0.6c-0.5,0.2-0.9,0.4-1.2,0.5C13,15.9,12.8,16,12.6,16s-0.3,0-0.5,0
		c-0.3,0-0.4,0-0.5,0.2s0.2,0.4,0.4,0.6c0.3,0.2,0.5,0.3,0.8,0.3s0.6,0,0.9-0.2c0.3-0.2,0.7-0.4,1-0.5c0.2-0.1,0.4-0.2,0.6-0.3
		c-0.2,0.5-0.5,0.9-0.7,1.4c-0.3,0.6-0.7,1.1-1.1,1.8c-0.2,0-0.3,0-0.5-0.1c-0.2,0-0.4,0-0.6,0c-0.1,0-0.2,0-0.3,0s-0.5,0-0.5,0.2
		c0,0.1,0,0.1,0,0.2c0.1,0.1,0.3,0.2,0.6,0.2c0.1,0,0.3,0.1,0.5,0.1c0.1,0,0.2,0,0.3,0.1c-0.2,0.2-0.3,0.5-0.5,0.7
		c-0.2,0.3-0.5,0.6-0.7,1c-0.3,0.3-0.5,0.6-0.6,0.9c-0.2,0.2-0.3,0.4-0.4,0.6c-0.1,0.2-0.2,0.4-0.3,0.5c-0.1,0.2-0.2,0.4-0.3,0.6
		C10,24.6,9.9,24.8,10,25c0,0.1,0.1,0.1,0.2,0.1h0.1c0.1,0,0.3-0.1,0.8-0.6c0.6-0.8,1.2-1.5,1.8-2.2c0.5-0.7,1-1.4,1.5-2.1
		c0.3,0.1,0.5,0.2,0.8,0.4c0.3,0.1,0.6,0.3,1,0.5c0.3,0.2,0.6,0.4,0.9,0.5c0.2,0.1,0.4,0.2,0.6,0.4c-0.3,0.4-0.6,0.7-0.9,1
		s-0.7,0.5-1.1,0.7S14.9,24,14.5,24c-0.4,0.1-0.9,0.1-1.4,0.1c-0.9,0-1,0-1,0.2s0.1,0.2,0.9,0.4c0.8,0.2,1.5,0.3,2.3,0.2
		c0.7-0.1,1.4-0.4,1.9-0.8c0.3-0.2,0.6-0.5,0.8-0.7c0.2-0.2,0.4-0.5,0.7-0.7c0.3,0.2,0.7,0.5,1.1,0.8c0.5,0.3,1,0.7,1.6,1.1
		c0.3,0.2,0.7,0.4,1.1,0.6s0.8,0.4,1.3,0.6c0.4,0.2,0.9,0.4,1.3,0.5c0.4,0.2,0.8,0.3,1.1,0.3c0.4,0.1,0.6,0.1,0.8,0.1
		c0.2,0,0.3-0.1,0.3-0.2C27.5,26.2,27.4,26.1,26.9,25.7z M18,12.3c0.4-0.1,0.9-0.1,1.4-0.2c1.3-0.2,2.4-0.3,3.2-0.4c0.8,0,1.5,0,2,0
		c0.4,0,0.6,0.1,0.8,0.1c0.1,0,0.2,0.2,0.4,0.3c0.1,0.1,0.1,0.2,0.1,0.3s-0.1,0.1-0.3,0.2c-0.8,0.3-1.5,0.4-2,0.6
		c-0.5,0.1-1,0.2-1.5,0.3c-0.9,0.1-1,0.2-1.1,0.2l0,0c-0.3-0.2-0.6-0.3-1-0.3c-0.3,0-0.7,0.1-1,0.2c-0.2,0.1-0.4,0.2-0.7,0.3
		L18.1,14c0.1-0.2,0.1-0.4,0-0.7c-0.1-0.2-0.4-0.5-0.9-0.8C17.5,12.3,17.7,12.3,18,12.3z M18.5,21c-0.7-0.5-1.3-0.8-1.9-1.1
		c-0.5-0.3-1-0.5-1.5-0.6l0.1-0.1c0-0.1,0.1-0.1,0.1-0.2h0.1c0.1,0,0.1,0,0.2,0c0.6-0.1,1.2-0.2,1.8-0.5s1.3-0.6,2-1.1
		c0.4-0.3,0.6-0.3,0.6-0.3s0.1,0.1-0.1,0.8c-0.2,0.6-0.5,1.2-0.8,1.8C19,20.1,18.7,20.6,18.5,21z"/>
	<path fill="#FF2525" d="M48.9,20.1c-0.4-0.1-1.1-0.2-2-0.3c-0.8-0.1-1.4-0.1-2-0.1s-1.2,0-1.7,0s-1,0-1.4,0.1
		c-0.4,0-0.9,0.1-1.2,0.2c-0.1,0-0.2,0-0.2,0c0-0.5,0-1.1,0.1-1.7c0-0.7,0-1.5,0.1-2.2c0-0.8,0-1.5,0-2.2s0-1.3,0-1.8
		c0.3,0.1,0.5,0,0.9,0c0.4-0.1,0.8-0.2,1.3-0.4c0.4-0.2,0.8-0.4,1.3-0.6c0.4-0.1,0.8-0.2,1.1-0.3c-0.3,0.2-0.5,0.3-0.7,0.5l-1,0.6
		c-0.3,0.2-0.6,0.4-1,0.6c-0.3,0.2-0.7,0.5-1.1,0.7c-0.1,0.1-0.5,0.3-0.4,0.5s0.3,0.2,0.6,0c0.9-0.6,1.8-1.1,2.6-1.5
		c0.8-0.5,1.6-0.9,2.4-1.3c0.2-0.1,0.4-0.3,0.4-0.4c0-0.2-0.1-0.4-0.3-0.6c-0.1-0.1-0.3-0.2-0.4-0.2c-0.1,0-0.3-0.1-0.4-0.1h-0.1
		c-0.2,0-0.4,0.1-0.7,0.1c-0.3,0.1-0.6,0.2-1,0.4c-0.2,0.1-0.5,0.2-0.8,0.3s-0.7,0.2-1,0.3c-0.4,0.1-0.7,0.2-1,0.3
		c-0.4,0.1-0.5,0.1-0.6,0.1l0,0V9.6c0-0.4,0-0.7,0-1s0-0.5,0.1-0.8c0-0.3-0.1-0.7-0.3-1C40,6.5,39.7,6.2,39.2,6
		c-0.8-0.3-1.2-0.4-1.4-0.2c-0.1,0.1-0.1,0.1-0.1,0.2c0,0.2,0.2,0.3,0.5,0.6C38.6,6.8,38.8,7,39,7.3s0.3,0.6,0.3,0.9v1.5
		c0,0.6,0,1.2,0,1.9s0,1.3,0,2s0,1.3,0,1.9s0,1,0,1.4v0.7c0,0.3,0,0.6-0.1,1c0,0.4-0.1,0.8-0.2,1.1c0,0.1,0,0.2-0.1,0.3
		c-0.3,0-0.5,0.1-0.8,0.1c-0.3,0.1-0.6,0.1-0.9,0.2c-0.3,0.1-0.7,0.2-1.1,0.3c-0.4,0.1-0.8,0.2-1.3,0.4c-0.9,0.2-1.6,0.4-2.1,0.5
		s-0.8,0.1-1.1,0c-0.6-0.2-0.9-0.2-1,0s0,0.4,0.6,1.1c0.2,0.3,0.6,0.4,1,0.4c0.4,0,0.8-0.1,1.4-0.3c0.6-0.2,1.2-0.4,1.7-0.6
		s1-0.3,1.4-0.4c0.5-0.1,0.9-0.2,1.3-0.3c0.4-0.1,0.8-0.2,1.2-0.3c0.2,0.2,0.3,0.3,0.5,0.3l0,0c0.2,0,0.4-0.2,0.5-0.5
		c0.1,0,0.2,0,0.3,0s0.3,0,0.4-0.1c0.8-0.1,1.6-0.2,2.4-0.2c0.8,0,1.5,0,2.2,0s1.3,0.1,1.8,0.2s1,0.2,1.3,0.3
		c0.9,0.3,1.4,0.4,1.6,0.3c0.1-0.1,0.1-0.1,0.1-0.2c0-0.2-0.1-0.4-0.4-0.8C49.6,20.4,49.3,20.2,48.9,20.1z"/>
	<path fill="#FF2525" d="M69.1,14.5c0.1-0.1,0.2-0.3,0.4-0.5c0.1-0.3,0.3-0.5,0.5-0.9c0.2-0.3,0.3-0.7,0.5-1c0.2-0.4,0.3-0.7,0.4-1
		c0.2-0.4,0.4-0.8,0.6-1.4c0.1-0.3,0.2-0.5,0.2-0.8s-0.1-0.6-0.3-0.8C71,7.6,70.5,7.2,69.9,7c-0.5-0.2-1-0.4-1.5-0.4
		c-0.6,0-1.3,0.1-2,0.3c-0.7,0.2-1.5,0.5-2.4,0.9c-0.5,0.2-0.9,0.5-1.4,0.8c-0.4,0.3-0.8,0.6-1.1,1l-0.1-0.1
		c-0.1-0.1-0.2-0.2-0.2-0.4c-0.2-0.3-0.4-0.5-0.5-0.5s-0.2,0-0.2,0.1c-0.1,0.2-0.1,0.4,0,0.7c0,0.1,0,0.3,0.1,0.5
		c0,0.2,0.1,0.5,0.1,0.7c0,0.3,0,0.5,0.1,0.8c0,0.2,0,0.4,0,0.6v1.8c0,0.6,0,1,0,1.3c0,0.2,0,0.4,0.1,0.7c0.1,0.3,0.2,0.5,0.4,0.7
		c0.1,0.2,0.3,0.3,0.4,0.3c0.1,0.2,0.3,0.3,0.5,0.3s0.4,0,0.8,0c0.3,0,0.6-0.1,0.9-0.1c0.2,0,0.5-0.1,0.8-0.1L64.5,19
		c-0.5,0.1-0.9,0.2-1.2,0.3c-0.4,0.1-0.7,0.1-0.9,0.1c-0.5,0-0.8,0.1-1.1,0c-0.4-0.1-0.6,0-0.7,0.1c-0.1,0.1-0.1,0.2,0,0.3
		c0,0.1,0.1,0.2,0.3,0.3c0.4,0.2,0.8,0.3,1.3,0.4c0.5,0,1,0,1.5-0.1c0.1,0,0.3-0.1,0.5-0.1l0.4-0.1c0,0.2,0,0.4,0,0.5
		c0,0.2,0,0.4,0,0.6c0,0-0.1,0-0.1,0.1c-0.1,0-0.1,0.1-0.1,0.1c-0.4,0.4-0.8,0.7-1.1,0.9c-0.3,0.2-0.6,0.3-0.7,0.4
		c-0.1,0-0.3,0.1-0.5,0.1l0,0c-0.2,0-0.4,0.1-0.5,0.1c-0.2,0-0.4,0.1-0.5,0.1s-0.2,0-0.3,0c-0.4,0-0.5,0.1-0.6,0.2s0,0.3,0.1,0.5
		c0.1,0.3,0.3,0.4,0.5,0.5c0.1,0,0.1,0,0.2,0c0.2,0,0.5-0.1,0.9-0.2s0.8-0.2,1.2-0.3c0.4-0.1,0.9-0.2,1.3-0.2
		c0.4-0.1,0.9-0.1,1.3-0.2c0.4,0,0.8-0.1,1.2-0.1c0.3,0,0.6,0,1,0s0.8,0,1.1,0c0.4,0,0.7,0,1.1,0c0.3,0,0.6,0.1,0.7,0.1
		c0.5,0.1,0.8,0.2,1,0.1c0.1-0.1,0.3-0.2,0.1-0.6c-0.1-0.2-0.2-0.4-0.4-0.5c-0.2-0.2-0.5-0.2-1-0.2c-0.2,0-0.4,0-0.6,0s-0.5,0-0.8,0
		s-0.5,0-0.7,0h-0.7c-0.3,0-0.6,0-1,0c-0.3,0-0.6,0-0.9,0.1l0,0c0-0.2,0-0.3,0-0.5c0-0.1,0-0.3,0-0.4c0.3-0.2,0.5-0.4,0.7-0.6
		s0.4-0.3,0.6-0.4s0.4-0.2,0.6-0.3C68,20,68.1,20,68.1,20c0.4,0,0.5-0.2,0.6-0.3c0.1-0.2,0.1-0.4-0.1-0.6c-0.3-0.2-0.6-0.4-1.1-0.4
		c-0.4,0-0.9,0-1.6,0.1c0-0.3,0-0.7,0-1c0-0.4,0-0.7,0-1.1c0.1,0,0.1,0,0.2-0.1c0.1,0,0.2-0.1,0.4-0.1c0.4-0.1,0.7-0.2,1-0.3
		c0.2-0.1,0.5-0.1,0.8-0.1c0.1,0,0.1,0,0.2,0c0.2,0,0.3,0,0.4-0.1c0-0.1,0.1-0.1,0.1-0.3s-0.1-0.3-0.2-0.5c0.1-0.1,0.1-0.1,0.2-0.2
		C68.8,14.9,69,14.7,69.1,14.5z M64.6,15.2c0,0.2,0,0.3,0,0.5c-0.4,0.1-0.7,0.1-1,0.2c0.2-0.2,0.4-0.3,0.5-0.5
		c0.2-0.2,0.3-0.3,0.5-0.5C64.6,15.1,64.6,15.1,64.6,15.2z M64.6,13.3c0,0.2,0,0.4,0,0.6c-0.4,0.4-0.8,0.9-1.2,1.2
		c-0.2,0.2-0.5,0.4-0.7,0.5c-0.3,0.2-0.4,0.2-0.5,0.3c-0.1,0-0.1,0-0.2,0v-0.1c0-0.1,0-0.3,0-0.4c0-0.5-0.1-0.9-0.1-1.4
		c0-0.3,0-0.6,0-0.9l0,0c0.3,0.1,0.6,0.2,1.1,0.1c0.4,0,0.8-0.1,1.1-0.3c0.1-0.1,0.3-0.1,0.4-0.2c0.1,0,0.1,0,0.2-0.1L64.6,13.3
		L64.6,13.3z M64.7,11.6c-0.5,0.2-1,0.3-1.4,0.4c-0.5,0.1-0.9,0.2-1.2,0.2H62c0-0.2,0-0.3,0-0.5s0-0.4,0.1-0.5c0-0.2,0-0.4,0-0.5
		s0-0.2-0.1-0.4c0.5-0.4,0.9-0.7,1.4-1c0.4-0.3,0.9-0.5,1.3-0.7c0,0,0,0,0,0.1s0,0.2,0,0.3c0,0.4,0,0.8,0,1.2V11.6z M66,19.9
		L66,19.9c-0.1,0.1-0.1,0.1-0.2,0.2s-0.2,0.2-0.3,0.3l0,0c0-0.1,0-0.2,0-0.3C65.7,19.9,65.9,19.9,66,19.9z M68,14.3
		c-0.2,0.2-0.3,0.4-0.3,0.6c-0.3,0-0.6,0.1-1,0.2c-0.3,0.1-0.6,0.2-0.9,0.3c0-0.2,0-0.5,0-0.7c0-0.3,0-0.5,0-0.8
		c0.2-0.2,0.3-0.3,0.4-0.4c0.2-0.1,0.3-0.2,0.4-0.3c0.2-0.2,0.4-0.3,0.6-0.5s0.4-0.3,0.6-0.3c0.4-0.2,0.5-0.4,0.5-0.7
		c0-0.2-0.2-0.4-0.7-0.5c-0.3,0-0.6,0-0.9,0s-0.5,0.1-0.8,0.1V8.8c0-0.2,0-0.4,0-0.6c0.3-0.1,0.6-0.2,1-0.3c0.4-0.1,0.8-0.2,1.2-0.2
		c0.4-0.1,0.7-0.1,1,0s0.6,0.2,0.8,0.3c0.2,0.1,0.3,0.3,0.4,0.5s0.1,0.3,0,0.5c-0.2,0.6-0.4,1.1-0.5,1.5c-0.2,0.5-0.3,0.9-0.5,1.3
		c-0.2,0.4-0.4,0.8-0.6,1.2C68.4,13.5,68.2,13.9,68,14.3z"/>
	<path fill="#FF2525" d="M60,17c0-0.1-0.1-0.2-0.3-0.2c-0.1,0-0.3,0-0.7,0.3c-0.2,0.1-0.4,0.2-0.7,0.4c-0.2,0.1-0.5,0.3-0.7,0.5
		s-0.5,0.4-0.7,0.7l0,0c0-0.1,0-0.1,0.1-0.2c0.2-0.5,0.4-1,0.5-1.5c0.2-0.5,0.3-1,0.4-1.5c0.1-0.5,0.2-0.9,0.3-1.3
		c0.1-0.2,0-0.4,0-0.6c0.1-0.3,0.1-0.5,0.2-0.7c0.1-0.2,0.1-0.4,0.1-0.6c0.1-0.7,0.3-1.3,0.4-1.7c0.1-0.5,0.3-0.9,0.4-1.2
		c0.2-0.5,0.3-0.9,0.2-1.1c-0.1-0.2-0.4-0.4-0.8-0.6c-0.8-0.2-1.4,0-2,0.5c-0.3,0.3-0.6,0.5-1.1,0.8c-0.5,0.2-1,0.4-1.6,0.6
		c-0.9,0.2-1,0.3-1,0.4c0,0.1,0,0.1,0,0.2c0.1,0.1,0.2,0.2,0.5,0.2c0.3,0.1,0.6,0,1,0c0.4-0.1,0.8-0.2,1.2-0.3s0.8-0.3,1.1-0.5
		c0.4-0.2,0.7-0.4,1-0.7C58,8.8,58,8.8,58.1,8.8c0,0,0.1,0.1,0,0.6c0,0.1-0.1,0.3-0.1,0.6l-0.2,1c-0.1,0.4-0.2,0.8-0.3,1.3
		c-0.1,0.4-0.2,0.9-0.3,1.3c-0.1,0-0.1,0.1-0.2,0.1c-0.1,0-0.2,0.1-0.3,0.2c-0.7,0.4-1.3,0.9-2,1.4c-0.6,0.5-1.3,1-1.9,1.6
		c-0.3,0.3-0.4,0.5-0.4,0.7c0,0.1,0.1,0.2,0.1,0.2c0.2,0.1,0.5,0,0.9-0.2c0,0,0,0,0.1,0l0,0c0.1,0,0.1,0.1,0.2,0.2
		c0.5,0.4,1,0.7,1.4,0.8c0.3,0.1,0.5,0.2,0.8,0.2c-0.1,0.2-0.2,0.4-0.2,0.6c-0.1,0.2-0.2,0.4-0.3,0.5c-0.3,0.5-0.6,0.8-0.8,1
		s-0.5,0.3-0.7,0.4c-0.2,0-0.4,0.1-0.5,0.3c-0.2,0.2-0.3,0.4-0.2,0.8c0.1,0.5,0.2,0.7,0.5,0.8c0,0,0,0,0.1,0c0.2,0,0.5-0.1,0.7-0.4
		c0.4-0.3,0.7-0.6,0.9-0.8c0.2-0.2,0.5-0.4,0.9-0.6c0.5-0.3,0.9-0.7,1.2-1s0.6-0.7,0.9-1.2c0.1-0.1,0.2-0.2,0.3-0.4l0.4-0.4
		c0.1-0.1,0.3-0.3,0.4-0.4c0.2-0.1,0.2-0.2,0.3-0.2C59.9,17.4,60.1,17.2,60,17z M56.3,15.7c-0.1,0.3-0.2,0.6-0.3,0.9
		c-0.1,0.3-0.2,0.5-0.3,0.6s-0.2,0.2-0.3,0.2s-0.3,0-0.5,0s-0.5-0.1-0.8-0.3c-0.1,0-0.2-0.1-0.3-0.1c0.4-0.3,0.9-0.6,1.3-0.8
		c0.5-0.3,0.9-0.7,1.4-1.1C56.4,15.3,56.4,15.5,56.3,15.7z"/>
	<path fill="#FF2525" d="M83.1,20.9c-0.5-0.4-1.1-0.8-1.9-1.1c-0.4-0.2-0.6-0.2-0.7-0.1l-0.1,0.1v0.1c0,0.1,0.1,0.3,0.4,0.6
		c0.4,0.4,0.8,0.8,1.2,1.2c0.4,0.4,1,0.9,1.6,1.6c0.3,0.3,0.6,0.4,0.7,0.4s0.2,0,0.2-0.1c0.2-0.2,0.1-0.5-0.2-1.1
		C84,21.8,83.6,21.3,83.1,20.9z"/>
	<path fill="#FF2525" d="M94,9.6c-0.2,0-0.5,0-0.9,0.2c-0.2,0.1-0.5,0.2-0.8,0.3c-0.2,0.1-0.5,0.2-0.8,0.3c0-0.3,0-0.5,0-0.6V9.3
		c0-0.8,0.1-1.5,0.1-2s0.1-0.9,0.3-1.2C92,5.8,92,5.5,92,5.4s-0.1-0.3-0.8-0.6c-1-0.5-1.3-0.6-1.5-0.6c-0.1,0-0.1,0-0.2,0
		s-0.1,0.1-0.1,0.2c0,0.2,0.1,0.4,0.6,1c0,0,0.1,0.2,0.2,0.8c0,0.5,0,1.3,0,2.3v0.9c0,0.4,0,0.9,0,1.5c-0.5,0.2-1,0.4-1.6,0.7
		s-1.2,0.5-1.8,0.8c-0.3,0.2-0.6,0.3-0.9,0.3c-0.2,0-0.4,0.1-0.6,0.1s-0.6,0-0.7,0.3c0,0.2,0.3,0.4,0.5,0.5c0.5,0.2,0.9,0.3,1.2,0.3
		l0,0c0.3,0,0.7-0.2,1.1-0.5c0.3-0.2,0.7-0.5,1.2-0.7s1-0.5,1.5-0.7c0,0.4,0,0.7,0,1.1c0,0.5,0,0.9,0,1.4c-0.5,0.7-1,1.4-1.5,2
		c-0.5,0.6-1,1.1-1.5,1.5s-1,0.8-1.6,1.1c-0.5,0.3-1.1,0.6-1.6,0.8c-0.3,0.1-0.5,0.2-0.4,0.4c0,0.1,0.1,0.2,0.2,0.2h0.1l0,0
		c0.2,0,0.5-0.1,0.8-0.2c0.6-0.2,1.1-0.4,1.5-0.6c0.5-0.2,0.9-0.5,1.4-0.8c0.4-0.3,0.9-0.7,1.4-1.2c0.4-0.4,0.8-0.9,1.2-1.4
		c0,0.7,0,1.4,0.1,2c0,0.8,0,1.6,0.1,2.2c0,0.7,0,1.2,0,1.7s0,0.7,0,0.9c0,0.8-0.1,1-0.1,1.1c0,0-0.1,0.1-0.6-0.2
		c-0.2-0.1-0.4-0.2-0.7-0.4c-0.3-0.2-0.6-0.4-0.9-0.7c-0.3-0.2-0.6-0.5-0.9-0.7s-0.6-0.5-0.8-0.7C85.8,21,85.7,21,85.6,21h-0.2v0.1
		c0,0.1,0,0.2,0.7,1.1c0.2,0.3,0.5,0.5,0.8,0.9c0.3,0.3,0.7,0.6,1.1,0.9s0.8,0.6,1.1,0.9c0.4,0.3,0.7,0.5,0.9,0.7
		c0.5,0.3,0.8,0.4,1,0.4h0.1c0.3-0.1,0.4-0.4,0.4-1.1c0-0.2,0-0.6,0-1.3l-0.1-2.4c0-0.9-0.1-2-0.1-3.1s-0.1-2.1-0.1-3.2
		c0.1-0.1,0.3-0.3,0.4-0.4c0.1-0.1,0.3-0.2,0.4-0.3c0.2-0.1,0.3-0.3,0.3-0.6c0-0.2-0.1-0.5-0.3-1c-0.2-0.2-0.3-0.4-0.4-0.4l0,0
		c-0.1,0-0.2,0.1-0.3,0.2v-0.1c0-0.3,0-0.5,0-0.8c0.4-0.1,0.7-0.2,1-0.4c0.4-0.1,0.7-0.2,0.9-0.2c0.8-0.1,1-0.3,1.1-0.4
		c0.1-0.1,0.2-0.3,0-0.7C94.5,9.8,94.3,9.6,94,9.6z"/>
	<path fill="#FF2525" d="M81.6,18.4c0.4,0.5,0.6,1,0.7,1.4c0.1,0.2,0.2,0.6,0.5,0.6c0.2,0,0.4-0.2,0.5-0.7c0.1-0.4,0.2-0.9,0.3-1.6
		c0.1-0.6,0.1-1.4,0.2-2.1c0-0.7,0-1.5,0-2.2s-0.1-1.4-0.1-1.9c0-0.4-0.1-0.8-0.1-1.1s0-0.6,0-0.8s0-0.4,0-0.6c0-0.2,0-0.3,0-0.5
		c0-0.4,0-0.8-0.1-1c-0.1-0.3-0.4-0.5-0.8-0.9c-0.2-0.2-0.5-0.2-0.9-0.3c-0.4,0-1,0.1-1.8,0.3c-0.4,0.1-0.7,0.3-0.9,0.5
		c-0.3,0.2-0.5,0.4-0.7,0.7S78.1,8.7,78,8.9c0,0.1-0.1,0.4-0.2,0.6c0-0.1-0.1-0.1-0.1-0.2c-0.1-0.1-0.2-0.3-0.4-0.5
		c-0.2-0.2-0.3-0.2-0.4-0.2h-0.1l-0.1,0.1c-0.1,0.1,0,0.2,0,0.4c0.2,0.6,0.3,1.1,0.4,1.6c0,0.5,0,0.9-0.1,1.3c0,0.1-0.1,0.4-0.1,0.6
		l-0.1,1c0,0.4-0.1,0.7-0.1,1.1c0,0.4-0.1,0.7-0.1,1.1c0,0.3,0,0.6,0,0.9c0,0.3,0,0.5,0,0.6c0,0.3,0.1,0.7,0.2,0.9
		c0.1,0.3,0.3,0.6,0.5,0.9c0.1,0.1,0.2,0.2,0.3,0.2c0.1,0,0.1,0,0.2-0.1s0.1-0.2,0.1-0.8c0-0.4-0.1-0.8-0.1-1.4c0-0.5,0-1.1,0-1.7
		c0-0.6,0-1.2,0.1-1.8s0.2-1.2,0.3-1.8c0.1-0.5,0.2-0.8,0.2-1s0-0.3,0-0.4c0-0.5,0.1-0.9,0.2-1.2s0.2-0.4,0.4-0.5
		c0.4-0.3,0.8-0.5,1.2-0.6c0.4-0.1,0.7-0.2,1-0.2c0.2,0,0.4,0,0.5,0s0.2,0.1,0.3,0.3c0.1,0.2,0.2,0.4,0.3,0.8
		c0.1,0.4,0.1,0.9,0.2,1.5c0,0.4,0,1,0.1,1.6c0,0.6,0,1.2,0,1.8s0,1.2,0,1.8c0,0.6,0,1.1,0,1.5c0,0.3-0.1,0.6-0.1,0.7s0,0.2,0,0.2
		l-0.1-0.1c-0.4-0.3-0.9-0.8-1.5-1.3c-0.1-0.1-0.3-0.2-0.3-0.2v-0.1c0-0.1,0-0.2,0-0.2c0.1-0.8,0.2-1.4,0.3-2C81,13.5,81,13,81,12.7
		c0-0.4,0-0.7,0-0.9s-0.1-0.4-0.2-0.6c-0.1-0.2-0.2-0.3-0.3-0.4c-0.1-0.1-0.3-0.1-0.5-0.2c-0.4-0.1-0.6-0.1-0.8,0
		c-0.1,0.1-0.1,0.1-0.1,0.2c0,0.1,0.1,0.2,0.2,0.4c0.2,0.2,0.3,0.4,0.4,0.6c0.1,0.3,0.1,0.7,0.1,1.1c0,1-0.1,2-0.2,3
		c-0.1,0.9-0.4,1.9-0.6,2.8c-0.2,0.7-0.4,1.3-0.6,1.8c-0.2,0.4-0.4,0.8-0.6,1.1c-0.2,0.3-0.4,0.5-0.7,0.6c-0.3,0.1-0.6,0.3-1,0.4
		c-0.3,0.1-0.5,0.2-0.5,0.3c0,0.2,0.3,0.3,0.5,0.4c0.1,0,0.3,0,0.4,0s0.3,0,0.4,0c0.3-0.1,0.6-0.2,0.9-0.3c0.3-0.2,0.6-0.4,0.9-0.7
		c0.3-0.3,0.5-0.7,0.7-1.2c0.1-0.3,0.2-0.5,0.3-0.8c0.1-0.3,0.2-0.6,0.3-0.9c0.1-0.3,0.2-0.7,0.3-1.2c0.1-0.3,0.2-0.7,0.2-1.1
		c0,0,0,0,0.1,0.1C80.8,17.4,81.2,17.9,81.6,18.4z"/>
	<path fill="#FF2525" d="M118.3,25.1c-0.2-0.2-0.5-0.4-0.9-0.7c-0.2-0.2-0.5-0.3-0.8-0.5s-0.6-0.3-0.9-0.5s-0.6-0.3-0.9-0.4
		s-0.6-0.2-0.9-0.3c-0.4-0.1-0.6-0.1-0.6,0c-0.1,0.2,0.1,0.3,0.4,0.6c0.7,0.5,1.3,1.1,1.9,1.5c0.6,0.5,1.3,0.9,2.1,1.3
		c0.4,0.2,0.6,0.3,0.7,0.3h0.1c0.1,0,0.1-0.1,0.2-0.1c0.1-0.1,0.1-0.2,0-0.5C118.6,25.5,118.5,25.3,118.3,25.1z"/>
	<path fill="#FF2525" d="M117.6,4.9c0.3,0,0.6,0.2,0.9,0.5s0.6,0.6,0.9,0.9c0.2,0.2,0.3,0.3,0.5,0.4c0.1,0,0.1,0,0.2,0
		s0.2,0,0.3-0.1c0.1-0.1,0.2-0.2,0.2-0.4c0-0.1,0-0.3-0.1-0.5c-0.1-0.1-0.2-0.3-0.3-0.5c-0.1-0.2-0.3-0.3-0.5-0.5
		c-0.2-0.1-0.4-0.3-0.6-0.4s-0.5-0.2-0.8-0.2c-0.2,0-0.4,0-0.6,0s-0.3,0.1-0.4,0.1c-0.2,0.1-0.2,0.3-0.1,0.4
		C117.2,4.8,117.4,4.9,117.6,4.9z"/>
	<path fill="#FF2525" d="M121.2,15.1c-0.1-0.9-0.1-1.8-0.2-2.8c0-0.2,0-0.6-0.3-0.6h-0.1c-0.2,0.1-0.3,0.3-0.3,0.7V14
		c0,0.5,0,1,0,1.4c0,0.3-0.1,0.4-0.1,0.4s-0.1,0-0.2-0.1c-0.3-0.3-0.5-0.6-0.7-0.8c-0.2-0.3-0.4-0.6-0.6-0.9
		c-0.2-0.3-0.5-0.8-0.7-1.2c-0.3-0.5-0.6-1.1-1-1.9c-0.1-0.2-0.3-0.5-0.4-0.7s-0.2-0.4-0.3-0.5c0.4-0.3,0.8-0.5,1.2-0.8
		c0.5-0.3,0.9-0.6,1.4-0.9c0.3-0.2,0.4-0.3,0.5-0.5c0-0.1,0-0.2-0.1-0.3c-0.1-0.2-0.4-0.3-0.8-0.3c-0.3,0-0.6-0.1-0.9-0.1
		c-0.3-0.1-0.8-0.2-1.4-0.5c-0.3-0.1-0.4-0.1-0.4-0.1h-0.1l-0.1,0.1v0.1c0,0.1,0.1,0.1,0.4,0.3c0.2,0.1,0.4,0.2,0.5,0.3
		c0.1,0.1,0.3,0.1,0.4,0.2s0.2,0.1,0.3,0.2c0.1,0,0.1,0.1,0.2,0.1c-0.6,0.5-1.2,0.9-1.7,1.2c-0.2-0.5-0.4-0.9-0.6-1.3
		c-0.2-0.5-0.4-0.9-0.6-1.4c-0.2-0.4-0.3-0.6-0.4-0.8c-0.1-0.2-0.2-0.4-0.4-0.6c-0.3-0.3-0.6-0.6-0.9-0.8c-0.3-0.1-0.7-0.2-1.1-0.3
		c-0.1,0-0.2,0-0.3,0c-0.2,0-0.3,0.1-0.3,0.2c0,0.2,0.1,0.3,0.5,0.5c0.3,0.2,0.5,0.4,0.8,0.6c0.3,0.3,0.5,0.6,0.7,1
		c0.3,0.6,0.6,1.3,0.9,1.9s0.6,1.1,0.8,1.7c-0.3,0.2-0.6,0.4-0.9,0.6c-0.3,0.2-0.7,0.5-1.1,0.7c-0.4,0.3-0.7,0.5-1,0.5
		c-0.2,0.1-0.5,0.1-0.8,0.2c-0.2,0-0.6,0-0.7,0.3c0,0.2,0.2,0.4,0.8,0.5c0.3,0.1,0.7,0.1,1,0.1s0.8-0.3,1.3-0.7
		c0.3-0.2,0.6-0.5,0.9-0.7s0.5-0.4,0.8-0.6c0,0,0,0.1,0.1,0.1c0.5,1.1,1,2,1.5,2.8s0.9,1.5,1.3,2.1c0.4,0.6,0.8,1.1,1.2,1.5
		c0.4,0.4,0.8,0.8,1.2,1.1c0.3,0.2,0.5,0.3,0.7,0.3h0.1c0.1,0,0.1-0.1,0.2-0.1c0.1-0.1,0.1-0.4,0-0.8
		C121.3,16.8,121.2,16,121.2,15.1z"/>
	<path fill="#FF2525" d="M107.1,14.1c0,0.3,0,0.5,0,0.7s0,0.4,0,0.5c0,0.2,0,0.3-0.1,0.5c0,0.2-0.1,0.3-0.1,0.5
		c-0.2,0.8-0.1,1.5,0.1,1.9c0.2,0.3,0.3,0.4,0.4,0.5h0.1l0,0c0.2,0,0.3-0.3,0.4-0.6c0.1-0.4,0.1-0.7,0.1-1s0-0.6,0-0.8
		c0-0.4,0-0.7,0-0.9s0.1-0.5,0.1-0.8c0.1-0.2,0.1-0.5,0.2-0.6c0-0.2,0.1-0.3,0.2-0.4c0.1-0.1,0.1-0.3,0.2-0.4
		c0.1-0.1,0.2-0.3,0.3-0.5c0.2-0.3,0.2-0.5,0.2-0.6S109.1,12,109,12s-0.2,0.1-0.3,0.2c-0.2,0.3-0.3,0.5-0.5,0.8
		c-0.1,0.1-0.2,0.3-0.2,0.5c-0.1-0.3-0.3-0.6-0.6-0.8c-0.3-0.3-0.6-0.5-0.9-0.7c0.4-0.5,0.8-0.9,1.2-1.3c0.4-0.5,0.7-0.9,1-1.2
		c0.2-0.2,0.4-0.5,0.5-0.6c0.1-0.2,0.3-0.3,0.4-0.5c0.1-0.1,0.2-0.3,0.3-0.4c0.1-0.1,0.2-0.2,0.3-0.3c0.2-0.2,0.3-0.5,0-0.9
		c-0.2-0.3-0.6-0.6-1.1-0.9s-0.7-0.3-0.8-0.3c-0.1,0-0.2,0-0.2,0.1c-0.2,0.2,0.1,0.6,0.2,0.7c0.4,0.4,0.6,0.6,0.6,0.8
		c0,0.1,0,0.2-0.1,0.4c-0.3,0.4-0.7,0.8-0.9,1.2c-0.3,0.3-0.5,0.7-0.8,1c-0.2,0.3-0.5,0.6-0.8,0.9c-0.3,0.3-0.5,0.6-0.8,0.9
		c-0.3,0.3-0.6,0.6-0.8,0.8c-0.2,0.2-0.3,0.3-0.5,0.4c-0.1,0.1-0.3,0.2-0.3,0.4c-0.1,0.2-0.1,0.4-0.1,0.6c0.1,0.3,0.2,0.6,0.5,0.6
		l0,0c0.1,0,0.3-0.1,0.7-0.5c0.2-0.2,0.4-0.4,0.5-0.6c0.1-0.2,0.3-0.3,0.4-0.5c0.4,0.3,0.7,0.6,0.9,0.8
		C107,13.5,107.1,13.7,107.1,14.1z"/>
	<path fill="#FF2525" d="M116.4,14.6c-0.2-0.4-0.6-0.8-1.1-1c-0.4-0.2-0.8-0.3-1.1-0.3c-0.4,0-0.7,0-1,0.1c-0.6,0.2-1.3,0.5-1.8,0.9
		s-0.9,0.8-1.3,1.3c-0.1-0.1-0.2-0.2-0.3-0.2h-0.1c-0.1,0-0.3,0.2-0.2,0.5c0,0.2,0,0.5,0,0.8s-0.1,0.6-0.1,1.1
		c-0.1,0.5-0.1,1-0.1,1.4c0,0.5,0,0.9,0,1.3s0.1,0.7,0.2,1.1c0.1,0.3,0.3,0.6,0.4,0.9c0.2,0.4,0.4,0.6,0.7,0.6l0,0
		c0.2,0,0.3-0.3,0.3-0.7c-0.1-0.7-0.1-1.4-0.2-2.1c0-0.6-0.1-1.3-0.1-2.1c0-0.5,0-0.9,0-1.2c0-0.2-0.1-0.5-0.1-0.7
		c0.2-0.2,0.3-0.4,0.5-0.5c0.2-0.2,0.4-0.3,0.6-0.4c0.2-0.1,0.4-0.2,0.7-0.3c0.3-0.1,0.6-0.2,1-0.3c0.7-0.2,1.2-0.2,1.7,0
		c0.4,0.2,0.7,0.7,0.7,1.5c0,0.2,0,0.6,0,1c0,0.5,0,0.9,0,1.4s0,0.9,0,1.4c0,0.4,0,0.7,0,0.8c0,0.3-0.1,0.6-0.1,1s0,0.7,0.1,0.9
		c0,0.4,0.1,0.6,0.3,0.7h0.1c0.2,0,0.4-0.3,0.4-0.4c0.1-0.3,0.3-0.8,0.3-1.4c0.1-0.6,0.1-1.2,0.1-1.9c0-0.6,0-1.2,0-1.8
		c0-0.6,0-1.1,0-1.5C116.7,15.6,116.6,15,116.4,14.6z"/>
	<path fill="#FF2525" d="M113.3,16.4c-0.1-0.2-0.3-0.4-0.7-0.5c-0.6-0.2-1-0.2-1.1-0.1c-0.1,0.1-0.1,0.2-0.1,0.2
		c0,0.1,0.1,0.3,0.3,0.4c0.1,0.1,0.1,0.1,0.2,0.2s0.1,0.2,0.1,0.3c0,0.2,0.1,0.4,0.1,0.7c0,0.3,0,0.7,0,1.1c0,0.6-0.1,1.2-0.2,1.8
		c-0.1,0.5-0.2,1-0.4,1.5c-0.2,0.4-0.4,0.9-0.6,1.2c-0.3,0.4-0.6,0.8-0.9,1.2c-0.4,0.3-0.7,0.6-1.1,0.9c-0.4,0.2-1,0.4-1.6,0.6
		c-0.4,0.1-0.6,0.2-0.5,0.5c0,0.2,0.2,0.3,0.6,0.3l0,0l0,0c0.4,0,0.7-0.1,1.1-0.1c0.4-0.1,0.7-0.2,1-0.3c0.3-0.2,0.7-0.4,1-0.7
		c0.3-0.3,0.7-0.6,1-1.1c0.5-0.6,0.9-1.3,1.2-2.1c0.3-0.8,0.5-1.6,0.5-2.4c0-0.6,0.1-1.2,0.1-1.7s0.1-0.9,0.1-1.2
		C113.4,16.8,113.4,16.6,113.3,16.4z"/>
	<path fill="#FF2525" d="M142.6,22.6c-0.1-0.2-0.2-0.5-0.3-0.8s-0.3-0.6-0.4-0.9c-0.1-0.3-0.3-0.6-0.4-0.9c-0.2-0.3-0.3-0.6-0.4-0.8
		c-0.4-0.8-0.5-0.8-0.7-0.8l0,0h-0.1v0.1c-0.1,0.1-0.1,0.2,0,0.7c0.1,0.3,0.2,0.6,0.2,0.9c0.1,0.2,0.1,0.5,0.2,0.7
		c-1,0.2-1.9,0.4-2.6,0.5c-0.7,0.1-1.4,0.3-1.9,0.4c0-0.1,0-0.2,0-0.3c0-0.2,0-0.4,0-0.7c0-0.5,0.1-1,0.1-1.5s0-1,0-1.6
		c0.9-0.4,1.8-0.9,2.5-1.5c0.5-0.4,1-1,1.5-1.8s1-1.7,1.5-2.7c0.2-0.4,0.3-0.9,0.3-1.4s-0.3-1-0.9-1.6c-0.3-0.3-0.6-0.4-1-0.4
		s-0.7,0.3-0.8,0.7c-0.3,1-0.7,1.8-1.1,2.2c-0.4,0.5-0.8,0.8-1.2,0.9c-0.2,0.1-0.3,0.1-0.5,0.2c-0.1,0-0.2,0.1-0.3,0.1
		c0-0.9,0-1.7,0-2.5c0-0.9,0-1.7,0-2.5c0-0.5,0-0.9-0.1-1.3s-0.2-0.7-0.3-0.9c-0.2-0.2-0.4-0.4-0.6-0.6c-0.3-0.1-0.6-0.3-1-0.4
		c-0.2,0-0.3-0.1-0.5-0.1c-0.1,0-0.2,0-0.3,0.1c0,0.1-0.1,0.1,0,0.2c0,0.1,0.1,0.2,0.4,0.4c0.5,0.3,0.8,0.6,1,0.9s0.3,0.8,0.3,1.4
		c0,0.9,0,1.8,0,2.8s0,2-0.1,3c-1.5,0.7-2.9,1.4-4,2.1c-0.6,0.4-0.9,0.5-1,0.5c0-0.1,0-0.4,0.3-1.2c0.6-1.7,0.8-3,0.4-4
		c-0.2-0.5-0.3-0.7-0.5-0.7c-0.3,0-0.3,0.5-0.3,0.7c0,0.9-0.1,1.7-0.3,2.5s-0.4,1.5-0.6,2.1c-0.2,0.4-0.2,0.7-0.2,0.9
		s0.1,0.4,0.2,0.6c0.2,0.3,0.5,0.4,0.8,0.4s0.7-0.2,1.2-0.6c0.6-0.4,1.3-0.8,2-1.2c0.6-0.3,1.3-0.7,2-1c0,0.5,0,1,0,1.5s0,1.1,0,1.6
		c-0.4,0.1-0.7,0.2-1.1,0.2c-0.4,0-0.8,0.1-1.2,0.1s-0.8,0-1.1,0.1c-0.4,0.1-0.6,0.4-0.8,0.8c-0.5,0.9-0.8,1.8-1.1,2.4
		c-0.3,0.7-0.5,1.3-0.7,1.9c-0.2,0.5-0.3,0.9-0.3,1.3c0,0.3,0.1,0.6,0.2,0.8c0.2,0.3,0.4,0.5,0.7,0.5l0,0c0.3,0,0.7-0.2,1.2-0.5
		c0.3-0.2,0.7-0.5,1.2-0.7s1.2-0.5,1.9-0.8c0.8-0.3,1.7-0.5,2.8-0.8s2.4-0.6,3.8-0.9h0.2h0.1c0.1,0.4,0.3,0.9,0.5,1.4
		s0.5,1.1,0.7,1.7c0.3,0.6,0.4,0.7,0.5,0.7l0,0c0.1,0,0.2-0.1,0.4-0.7c0-0.2,0-0.4-0.1-0.9C142.9,23.3,142.7,22.9,142.6,22.6z
		 M136.3,13.5c0.2-0.1,0.4-0.2,0.6-0.3c0.2-0.1,0.5-0.2,0.8-0.3c0.1-0.1,0.3-0.2,0.5-0.4s0.4-0.4,0.6-0.6c0.2-0.2,0.4-0.5,0.5-0.8
		c0.2-0.3,0.3-0.6,0.3-0.9c0.1-0.7,0.4-1.1,0.7-1.2c0,0,0.1,0,0.3,0.2c0.1,0.2,0.2,0.4,0.2,0.7c0,0.4-0.1,0.9-0.3,1.4
		s-0.4,1.1-0.7,1.6s-0.6,1-1,1.5s-0.7,0.9-1.1,1.2c-0.3,0.2-0.6,0.5-0.8,0.7c-0.2,0.1-0.4,0.3-0.6,0.4
		C136.3,15.6,136.3,14.6,136.3,13.5z M129.7,25.1L129.7,25.1L129.7,25.1L129.7,25.1z M135,21.8c-0.5,0.1-0.9,0.3-1.3,0.4
		c-0.4,0.2-0.8,0.3-1.2,0.5s-0.7,0.3-1,0.5s-0.7,0.3-1,0.5s-0.4,0.2-0.5,0.2c0,0-0.1-0.2,0.2-1c0.1-0.6,0.3-1.3,0.6-2
		c0.2-0.8,0.5-1.5,0.9-2.2c0.1-0.2,0.2-0.4,0.4-0.4c0.1,0,0.3-0.1,0.7-0.1c0.8,0,1.6-0.1,2.3-0.3c0,0.4,0,0.8,0,1.2
		c0,0.5,0,1-0.1,1.5C134.9,21.1,135,21.5,135,21.8z"/>
	<path fill="#FF2525" d="M161.6,14.3c0.1-0.2,0.1-0.4-0.1-0.5c-0.3-0.2-0.8-0.2-1.4,0.1l-0.5,0.3c-0.1,0-0.2,0.1-0.3,0.1
		c0-0.6,0.1-1.2,0.1-1.8s0.1-1.3,0.1-1.9c0.1,0,0.2,0,0.4,0s0.3,0,0.5,0c0.7,0,0.9-0.1,1-0.1c0.2-0.1,0.3-0.3,0.2-0.5
		c0-0.2-0.2-0.3-0.3-0.4c-0.2-0.1-0.5-0.1-0.8-0.1c-0.2,0-0.4,0-0.5,0s-0.2,0-0.3,0c0-0.4,0.1-0.8,0.1-1.2c0-0.4,0.1-0.8,0.1-1.2
		c0.1-0.5,0.1-0.9,0-1.3c0-0.4-0.1-0.7-0.3-0.9c-0.1-0.3-0.3-0.5-0.6-0.7c-0.2-0.2-0.5-0.3-0.8-0.4c-0.5-0.2-0.8-0.2-1-0.1
		c-0.1,0.1-0.1,0.2-0.1,0.2c0,0.2,0.1,0.3,0.4,0.5c0.5,0.3,0.9,0.7,1,1c0.1,0.4,0.2,0.9,0.1,1.6c0,0.4-0.1,0.9-0.1,1.3
		s-0.1,0.8-0.1,1.3c-0.2,0-0.4,0-0.6,0c-0.2,0-0.5,0-0.7,0c-0.4,0-0.7,0-0.9-0.1s-0.4-0.2-0.5-0.3C155.4,9,155.3,9,155.2,9h-0.1
		L155,9.1v0.1c0,0.1,0,0.2,0.3,0.6c0.2,0.3,0.5,0.5,0.8,0.7s0.6,0.3,0.9,0.3h0.7c0.2,0,0.5,0,0.7,0c0,0.7-0.1,1.4-0.1,2.2
		s-0.1,1.5-0.1,2.2c-0.6,0.4-1.1,0.7-1.7,1.1c-0.6,0.4-1.1,0.8-1.7,1.1c-0.4,0.3-0.8,0.5-1.2,0.5c-0.4,0.1-1,0-1.6-0.3
		c-0.5-0.2-0.7-0.2-0.9-0.1c-0.1,0-0.1,0.1-0.1,0.2s0.1,0.3,0.5,0.7c0.7,0.5,1.3,0.8,2,0.8s1.4-0.4,2.3-1c0.3-0.3,0.7-0.6,1.2-0.9
		c0.4-0.2,0.7-0.5,1.1-0.7c0,1-0.1,2-0.1,2.8c0,0.9,0,1.6,0,2c0,0.5,0,0.9,0,1.2c0,0.3-0.1,0.5-0.2,0.5c-0.1,0.1-0.2,0.1-0.3,0.1
		c-0.2,0-0.5-0.1-0.8-0.3c-0.3-0.1-0.5-0.2-0.8-0.3c-0.1-0.1-0.2-0.1-0.4-0.2c0,0,0.1,0,0.1-0.1L156,22c0.4-0.2,0.6-0.4,0.5-0.6
		c0-0.1-0.1-0.2-0.3-0.2c-0.1,0-0.2,0-0.6,0.2c-0.2,0.1-0.4,0.2-0.5,0.3c-0.1,0.1-0.3,0.2-0.4,0.2c-0.4-0.2-0.8-0.4-1.2-0.6
		s-0.8-0.4-1.3-0.6c-0.6-0.3-1.1-0.4-1.5-0.2c-0.4,0.1-0.7,0.4-0.9,0.9c-0.1,0.2-0.2,0.5-0.2,0.9c0,0.3-0.1,0.7-0.1,1.1
		s0,0.8,0.1,1.1c0,0.4,0.1,0.7,0.2,0.9c0.1,0.6,0.4,0.9,0.7,0.9s0.6-0.2,0.9-0.6c0.4-0.4,0.8-0.8,1.4-1.3c0.5-0.5,1.2-1,1.9-1.5
		c0.6,0.3,1.1,0.7,1.5,1c0.5,0.3,0.9,0.7,1.2,1c0.4,0.4,0.7,0.6,1,0.6h0.1c0.3,0,0.5-0.3,0.6-0.8c0.1-0.4,0.1-1,0.2-1.6
		c0-0.6,0-1.5,0-2.7c0-0.4,0-1.1,0-1.9s0.1-1.7,0.1-2.7c0.3-0.2,0.7-0.4,0.9-0.6c0.3-0.2,0.5-0.3,0.7-0.4
		C161.3,14.6,161.5,14.5,161.6,14.3z M151.2,24.3c-0.2,0.2-0.3,0.2-0.3,0.2c0-0.1-0.1-0.2-0.1-0.6s0-0.8,0-1.2c0-0.5,0-0.8,0.1-1.2
		c0-0.2,0.2-0.3,0.4-0.3c0.1,0,0.1,0,0.2,0c0.2,0,0.4,0.1,0.6,0.2c0.3,0.2,0.7,0.3,1.1,0.5c0.3,0.2,0.6,0.3,0.9,0.5
		C152.7,23,151.8,23.7,151.2,24.3z"/>
	<path fill="#FF2525" d="M165.3,20.4c-0.2-0.2-0.4-0.4-0.7-0.5s-0.6-0.3-0.9-0.4c-0.3-0.1-0.7-0.1-1-0.2h-0.1c-0.3,0-0.7,0-1,0.1
		c-0.2,0.1-0.3,0.1-0.3,0.2s0,0.1,0,0.2s0.1,0.2,0.3,0.2h0.1c0.5,0,0.9,0,1.2,0.1s0.6,0.2,0.9,0.4c0.6,0.4,1,0.9,1.2,1.6
		c0,0.1,0,0.2,0,0.2s0,0.1-0.6-0.1c-0.3-0.1-0.6-0.3-1-0.5c-0.5-0.3-0.6-0.3-0.7-0.3c-0.1,0-0.2,0.1-0.2,0.1c0,0.1-0.1,0.1,0,0.2
		c0,0.1,0.1,0.3,0.6,0.6c0.4,0.3,0.8,0.5,1,0.7c0.3,0.2,0.5,0.5,0.9,0.8c0.2,0.2,0.4,0.3,0.5,0.3s0.2,0,0.2,0
		c0.3-0.1,0.4-0.4,0.5-0.8c0.1-0.5,0.1-1,0-1.4C166,21.4,165.7,20.9,165.3,20.4z"/>
	<path fill="#FF2525" d="M174.5,14c0.2,0.2,0.4,0.4,0.7,0.5c0.5,0.2,0.9,0.3,1.2,0.3c0.1,0,0.2,0,0.2,0c0.4-0.1,0.7-0.3,0.9-0.6
		s0.4-0.6,0.6-0.9c0.3-0.3,0.5-0.5,0.6-0.7c0.3-0.3,0.4-0.5,0.3-0.7c0-0.1-0.1-0.2-0.2-0.2c-0.1,0-0.3,0.1-0.6,0.4
		c-0.4,0.4-0.8,0.8-1.1,1s-0.6,0.4-0.8,0.5s-0.4,0.1-0.6,0c-0.2-0.1-0.4-0.2-0.6-0.4c0,0-0.1-0.1-0.1-0.2c0-0.1,0-0.3,0-0.4
		c0-0.1,0.1-0.3,0.2-0.5c0.1-0.1,0.2-0.3,0.4-0.4c0.2-0.1,0.3-0.2,0.3-0.4c0,0,0-0.1-0.2-0.2c-0.2,0-0.4,0-0.6,0.2
		c-0.4,0.2-0.6,0.5-0.7,0.9c-0.1,0.4-0.2,0.7-0.1,1.1C174.2,13.5,174.3,13.7,174.5,14z"/>
	<path fill="#FF2525" d="M191.6,21.7c-0.1-0.1-0.2-0.2-0.8-0.3c-0.7,0-1.4-0.1-1.9-0.2s-1-0.2-1.5-0.3c-0.5-0.1-0.9-0.3-1.3-0.5
		c-0.4-0.2-0.9-0.5-1.5-0.9c-0.4-0.2-0.8-0.5-1.2-0.7s-0.8-0.5-1.1-0.7c-0.4-0.2-0.7-0.4-1-0.6s-0.5-0.3-0.7-0.4v-1.5
		c0.4-0.1,0.8-0.2,1.2-0.3c0.5-0.1,0.9-0.2,1.3-0.3c0.4-0.1,0.8-0.1,1.2-0.2c0.4,0,0.6-0.1,0.9-0.1c0.6,0,0.7-0.1,0.8-0.2
		c0-0.1,0.1-0.1,0-0.2c0-0.1-0.2-0.3-0.8-0.6c-0.2-0.1-0.5-0.2-0.7-0.3s-0.5-0.2-0.7-0.2c-0.1,0-0.2,0-0.3,0s-0.2,0-0.3,0.1
		s-0.2,0.2-0.1,0.3c0,0.1,0.1,0.2,0.3,0.2c0,0,0.1,0,0.1,0.1c-0.1,0-0.2,0-0.3,0c-0.2,0-0.5,0.1-0.8,0.2l-0.9,0.2
		c-0.3,0.1-0.5,0.1-0.7,0.2v-0.4c0-0.2,0-0.3,0-0.5c0.6-0.3,1.1-0.6,1.5-0.8s0.8-0.4,1-0.5c0.5-0.2,0.8-0.4,0.9-0.6
		c0.1-0.2,0.1-0.5-0.1-0.8c-0.5-0.9-0.7-1.1-0.9-1.1c-0.4,0-0.4,0.6-0.4,0.8s-0.1,0.4-0.2,0.6c-0.2,0.2-0.4,0.4-0.6,0.5
		c-0.2,0.1-0.4,0.3-0.7,0.5c-0.2,0.1-0.3,0.2-0.5,0.4c0-0.8,0.1-1.6,0.1-2.3s0.1-1.4,0.1-2c0.4-0.1,0.8-0.2,1.1-0.3
		c0.4-0.1,0.7-0.1,0.9,0c0.7,0.1,1,0,1.2-0.2c0.1-0.1,0.1-0.2,0-0.3c-0.1-0.2-0.3-0.4-0.8-0.6c-0.3-0.1-0.7-0.2-1.2-0.1
		c-0.4,0-0.8,0.1-1.1,0.2c0.1-0.4,0.1-0.8,0.3-1c0.4-0.9,0.4-1.7,0-2.2s-0.8-0.7-1.2-0.7s-0.8,0.3-1,0.8C179,4.3,179,4.5,179,4.7
		c0.1,0.1,0.2,0.2,0.2,0.2c0.1,0,0.2-0.1,0.3-0.2s0.2-0.2,0.3-0.2s0.2,0,0.3,0c0,0,0.1,0.1,0.1,0.4s0,0.6-0.1,0.8
		c0,0.1-0.1,0.4-0.1,0.8c0,0.3-0.1,0.7-0.1,1.2c-0.3,0.1-0.6,0.3-1,0.4c-0.5,0.2-0.7,0.2-0.8,0.2c-0.5,0.1-0.8,0.1-1.1,0.1
		s-0.6-0.1-0.9-0.3c-0.4-0.2-0.6-0.2-0.7-0.2L175.3,8v0.1c0,0.1,0,0.2,0.4,0.6c0.2,0.2,0.5,0.4,0.7,0.5s0.5,0.2,0.7,0.3
		c0.1,0,0.4,0.1,0.8,0.1h0.1c0.4,0,0.8-0.2,1.4-0.5c0.1-0.1,0.2-0.1,0.3-0.2h0.1c-0.1,0.8-0.1,1.6-0.2,2.4c0,0.9-0.1,1.6-0.1,2.2
		c-0.3,0.2-0.6,0.4-0.9,0.6c-0.3,0.2-0.6,0.4-0.9,0.6c-0.6,0.5-0.7,0.6-0.7,0.8l0.1,0.1h0.1c0.1,0,0.3,0,1.2-0.6
		c0.2-0.2,0.5-0.3,0.7-0.4c0.1-0.1,0.3-0.2,0.4-0.2V15c-0.3,0.1-0.6,0.2-0.9,0.3c-0.4,0.1-0.8,0.3-1.2,0.5s-0.8,0.4-1.2,0.5
		c-0.4,0.2-0.7,0.4-1,0.5c-0.3,0.2-0.6,0.4-0.8,0.5s-0.4,0.2-0.6,0.3c-0.2,0.1-0.4,0.1-0.6,0.1c-0.2,0-0.4,0-0.6,0
		c-0.6-0.1-0.8,0-0.9,0.1c0,0.1-0.1,0.1,0,0.2c0,0.1,0.1,0.2,0.6,0.5c0.5,0.2,1,0.3,1.6,0.2c0.6-0.1,1-0.3,1.5-0.5
		c0.3-0.2,0.7-0.5,1.1-0.7c0.3-0.2,0.6-0.3,0.9-0.5c-0.1,0.2-0.2,0.4-0.2,0.6c-0.2,0.4-0.4,0.9-0.8,1.5c-0.3,0.5-0.7,1-1.1,1.4
		c-0.2,0.2-0.4,0.3-0.5,0.5c-0.2,0.1-0.4,0.3-0.6,0.4c-0.2,0.1-0.4,0.2-0.7,0.3c-0.3,0.1-0.5,0.2-0.9,0.3c-0.4,0.1-0.8,0.3-0.7,0.6
		c0,0.2,0.3,0.3,0.9,0.2c0.4-0.1,0.9-0.2,1.4-0.4c0.5-0.2,0.9-0.4,1.2-0.6c0.2-0.2,0.4-0.4,0.7-0.7c0.3-0.3,0.5-0.6,0.8-1
		s0.6-0.8,0.9-1.3c0.3-0.4,0.5-0.9,0.7-1.4c0,0,0.1,0,0.1,0.1c0.1,0,0.2,0.1,0.4,0.1c0.1,0,0.3,0.1,0.5,0.2c0,1.3,0,2.4,0,3.4
		s0,1.6,0,2c0,0.9-0.1,1.1-0.1,1.1s-0.2,0-0.5-0.3c-0.2-0.2-0.5-0.4-0.8-0.7c-0.3-0.2-0.6-0.5-0.8-0.7c-0.3-0.2-0.4-0.3-0.6-0.3
		h-0.1c-0.1,0-0.1,0.1-0.2,0.1c-0.1,0.1,0,0.3,0.3,0.6c0.1,0.2,0.3,0.4,0.6,0.7c0.3,0.3,0.5,0.6,0.8,0.9s0.5,0.6,0.8,0.9
		c0.2,0.3,0.4,0.5,0.5,0.6c0.2,0.2,0.4,0.4,0.6,0.4c0.4,0,0.6-0.5,0.7-0.7c0.1-0.4,0.2-0.8,0.2-1.3s0-1.1-0.1-1.8c0-0.1,0-0.2,0-0.5
		s0-0.6,0-1s0-0.9,0-1.4c0-0.4,0-0.8,0-1.2c0.3,0.2,0.6,0.4,1,0.6c0.5,0.3,1,0.7,1.6,1.1c0.4,0.3,0.8,0.5,1.2,0.8
		c0.3,0.2,0.7,0.5,1,0.7s0.6,0.4,1.2,0.5c0.5,0.1,1,0.2,1.5,0.2l0,0c0.5,0,1,0,1.5,0s1-0.1,1.3-0.2s0.4-0.1,0.5-0.2L191.6,21.7
		L191.6,21.7z M179.6,16.6c-0.1,0-0.2-0.1-0.3-0.1s-0.2-0.1-0.3-0.1c0,0,0,0,0-0.1l0,0c0.1-0.1,0.3-0.1,0.4-0.1
		c0.1,0,0.2-0.1,0.2-0.1L179.6,16.6L179.6,16.6z"/>
</g>
<path fill="#FF2525" d="M6.6,39.2c0,0,2.9-0.5,8-1.2c2.5-0.3,5.6-0.8,9.2-1.2c3.5-0.4,7.5-0.9,11.9-1.4s9.1-0.9,14.1-1.4
	c5-0.4,10.3-1,15.8-1.3c2.7-0.2,5.5-0.4,8.3-0.6c2.8-0.2,5.7-0.3,8.5-0.5c5.7-0.4,11.6-0.6,17.4-0.9s11.7-0.4,17.5-0.6
	s11.4-0.2,16.9-0.3c5.5-0.1,10.8,0,15.8,0s9.8,0.1,14.2,0.2s8.4,0.1,12,0.3c3.6,0.1,6.7,0.3,9.2,0.4c5.1,0.2,8,0.4,8,0.4s-2.9,0-8,0
	c-2.6,0-5.7,0-9.2-0.1c-3.6,0-7.6,0-12,0s-9.1,0-14.2,0.1c-5,0.1-10.3,0.2-15.8,0.3c-5.5,0.1-11.1,0.2-16.9,0.4
	c-5.7,0.2-11.6,0.4-17.4,0.7S88.2,33,82.5,33.3c-2.9,0.2-5.7,0.3-8.5,0.5s-5.6,0.4-8.3,0.5c-5.5,0.4-10.8,0.7-15.8,1.1
	c-5,0.4-9.7,0.7-14.1,1.1c-4.4,0.4-8.4,0.7-11.9,1s-6.6,0.6-9.2,0.9C9.5,38.9,6.6,39.2,6.6,39.2z"/>
</svg>
