<?xml version="1.0" standalone="no"?><!DOCTYPE svg PUBLIC "-//W3C//DTD SVG 1.1//EN" "http://www.w3.org/Graphics/SVG/1.1/DTD/svg11.dtd"><svg t="1515124556895" class="icon" style="" viewBox="0 0 4876 1024" version="1.1" xmlns="http://www.w3.org/2000/svg" p-id="2305" xmlns:xlink="http://www.w3.org/1999/xlink" width="952.34375" height="200"><defs><style type="text/css"></style></defs><path d="M2413.714286 502.247619c-2.438095-2.438095-4.87619-2.438095-7.314286-2.438095h-2.438095c-4.87619 2.438095-12.190476 4.87619-17.066667 9.752381-4.87619 4.87619-12.190476 9.752381-17.066667 17.066666-4.87619 4.87619-9.752381 12.190476-12.190476 17.066667-2.438095 7.314286-4.87619 12.190476-4.87619 17.066667 0 2.438095 2.438095 4.87619 4.87619 7.314285l2.438095 2.438096c-2.438095 4.87619-7.314286 7.314286-7.314285 9.752381-2.438095 2.438095-2.438095 4.87619-2.438095 7.314285s2.438095 4.87619 4.87619 7.314286h2.438095c2.438095 0 4.87619 0 7.314286-2.438095 4.87619-2.438095 9.752381-7.314286 17.066667-14.628572 4.87619-7.314286 12.190476-12.190476 17.066666-21.942857 4.87619-7.314286 9.752381-14.628571 12.190476-21.942857 4.87619-7.314286 4.87619-14.628571 7.314286-21.942857 0-4.87619-2.438095-7.314286-4.87619-9.752381z" p-id="2306" fill="#ffffff"></path><path d="M312.07619 173.104762h7.314286c9.752381 0 21.942857-2.438095 34.133334-4.876191s26.819048-4.87619 39.009523-9.752381 26.819048-7.314286 39.009524-12.190476l36.571429-14.628571c4.87619-2.438095 12.190476-4.87619 14.628571-4.876191 4.87619-2.438095 7.314286-2.438095 9.752381-2.438095s4.87619 0 7.314286-2.438095h7.314286c4.87619 0 12.190476-2.438095 14.628571-7.314286 2.438095-4.87619 0-9.752381-4.876191-14.628571-4.87619-4.87619-9.752381-9.752381-12.190476-14.628572-4.87619-4.87619-9.752381-7.314286-17.066666-12.190476-7.314286-4.87619-9.752381-4.87619-12.190477-4.87619h-2.438095l-2.438095 2.438095c-2.438095 2.438095 0 7.314286 4.87619 14.628571 0 2.438095 2.438095 4.87619 2.438096 4.876191l-2.438096 2.438095c-2.438095 2.438095-4.87619 4.87619-9.752381 7.314286-4.87619 2.438095-12.190476 7.314286-21.942857 12.190476-19.504762 9.752381-39.009524 17.066667-58.514285 24.380952-21.942857 7.314286-43.885714 14.628571-68.266667 19.504762-12.190476 2.438095-14.628571 4.87619-17.066667 7.314286v2.438095l4.876191 4.876191c2.438095 2.438095 4.87619 2.438095 7.314285 2.438095zM655.847619 626.590476c-4.87619-4.87619-12.190476-7.314286-17.066667-12.190476-4.87619-2.438095-12.190476-7.314286-17.066666-9.752381-7.314286-2.438095-14.628571-7.314286-21.942857-9.752381s-17.066667-7.314286-29.257143-12.190476c-7.314286-2.438095-14.628571-7.314286-21.942857-9.752381s-14.628571-7.314286-21.942858-12.190476-17.066667-9.752381-26.819047-14.628572-19.504762-12.190476-29.257143-19.504762l14.628571-21.942857c4.87619-9.752381 9.752381-19.504762 14.628572-31.695238 2.438095-7.314286 7.314286-14.628571 9.752381-21.942857 2.438095-4.87619 4.87619-9.752381 9.752381-17.066667 4.87619-9.752381 7.314286-17.066667 4.87619-21.942857-2.438095-4.87619-7.314286-12.190476-12.190476-17.066666-9.752381-9.752381-14.628571-12.190476-21.942857-12.190477-4.87619 0-9.752381 2.438095-14.628572 7.314286-2.438095 2.438095-7.314286 4.87619-9.752381 7.314286l-7.314285 7.314286c-2.438095 2.438095-7.314286 4.87619-12.190476 7.314285-4.87619 2.438095-9.752381 4.87619-17.066667 9.752381-14.628571 9.752381-29.257143 14.628571-41.447619 17.066667 4.87619-7.314286 7.314286-14.628571 12.190476-21.942857 4.87619-9.752381 9.752381-19.504762 14.628571-31.695238l7.314286-14.628572c7.314286-2.438095 12.190476-4.87619 19.504762-7.314286l21.942857-7.314285c9.752381-2.438095 19.504762-4.87619 24.380953-7.314286H509.561905c2.438095 0 4.87619 0 7.314285-2.438095 0-2.438095 2.438095-2.438095 2.438096-4.876191s0-2.438095-2.438096-4.87619h58.514286c4.87619 0 12.190476-2.438095 17.066667-2.438095s12.190476-2.438095 17.066667-4.876191c7.314286-2.438095 12.190476-2.438095 17.066666-2.438095s9.752381 0 17.066667-2.438095c7.314286 0 12.190476-4.87619 17.066667-9.752381 2.438095-4.87619 2.438095-14.628571-4.876191-24.380953-4.87619-7.314286-9.752381-14.628571-14.628571-19.504762s-9.752381-9.752381-14.628572-12.190476-12.190476-4.87619-19.504762-4.87619h-24.380952c-17.066667 0-34.133333 2.438095-51.2 2.438095-14.628571 0-29.257143 2.438095-43.885714 4.87619 9.752381-9.752381 17.066667-19.504762 21.942857-26.819047 7.314286-9.752381 12.190476-17.066667 14.628571-24.380953s4.87619-14.628571 2.438095-19.504761c0-4.87619-2.438095-9.752381-4.87619-14.628572-4.87619-7.314286-9.752381-14.628571-14.628571-19.504762-2.438095 0-9.752381-4.87619-19.504762-9.752381s-12.190476-4.87619-14.628572-4.87619l-4.87619 2.438095V146.285714c0 2.438095 0 4.87619 7.314285 9.752381s12.190476 9.752381 14.628572 14.628572 7.314286 9.752381 9.752381 14.628571c0 2.438095 2.438095 4.87619 2.438095 7.314286 0 2.438095 0 4.87619-4.87619 12.190476l-12.190477 24.380952c-4.87619 9.752381-14.628571 21.942857-24.380952 36.571429-9.752381 0-19.504762 2.438095-29.257143 4.87619-9.752381 2.438095-19.504762 2.438095-31.695238 4.876191-7.314286 2.438095-14.628571 2.438095-21.942857 4.87619-4.87619 2.438095-9.752381 2.438095-17.066667 4.876191v-2.438095-7.314286c0-9.752381 0-19.504762 2.438095-26.819048 0-7.314286 0-14.628571 2.438096-19.504762 0-4.87619 2.438095-9.752381 2.438095-12.190476s2.438095-4.87619 2.438095-7.314286c7.314286-12.190476 14.628571-17.066667 21.942857-17.066666 2.438095 0 7.314286 0 12.190477 14.628571 2.438095 12.190476 4.87619 19.504762 7.314285 26.819048 2.438095 7.314286 4.87619 12.190476 7.314286 17.066667 2.438095 4.87619 4.87619 7.314286 7.314286 9.75238 2.438095 0 4.87619 2.438095 7.314285 2.438096h2.438096c7.314286-2.438095 9.752381-7.314286 9.752381-14.628572 0-4.87619 0-9.752381-2.438096-17.066666-4.87619-4.87619-4.87619-7.314286-4.87619-9.752381 0-2.438095 0-2.438095 2.438095-4.876191s2.438095-4.87619 4.876191-7.314286 4.87619-7.314286 7.314285-12.190476c2.438095-2.438095 4.87619-7.314286 2.438096-9.752381l-2.438096-2.438095h-2.438095c-2.438095 0-4.87619 2.438095-7.314286 4.876191l-9.752381 9.752381c-2.438095 2.438095-4.87619 2.438095-4.87619 2.438095h-2.438095c-2.438095 0-2.438095-2.438095-4.876191-4.876191-14.628571-17.066667-26.819048-21.942857-36.571428-19.504762s-19.504762 12.190476-29.257143 26.819048c-2.438095 4.87619-7.314286 12.190476-7.314286 19.504762-2.438095 4.87619-2.438095 12.190476-4.87619 19.504762-7.314286-9.752381-19.504762-19.504762-36.571429-26.819048-9.752381-4.87619-14.628571-4.87619-14.628571-4.87619-2.438095 0-4.87619 2.438095-4.876191 2.438095-2.438095 4.87619 2.438095 9.752381 12.190476 17.066667 7.314286 4.87619 14.628571 12.190476 19.504762 21.942857s9.752381 21.942857 12.190476 36.571428v4.876191c-26.819048 7.314286-43.885714 17.066667-56.07619 26.819047-7.314286 7.314286-12.190476 9.752381-14.628572 9.752381v-2.438095c-2.438095-9.752381-4.87619-17.066667-7.314285-21.942857s-4.87619-7.314286-7.314286-12.190476c-4.87619-4.87619-7.314286-7.314286-12.190476-7.314286h-2.438095c-2.438095 0-2.438095 2.438095-4.876191 2.438095-2.438095 2.438095 0 7.314286 2.438095 12.190477s4.87619 12.190476 4.876191 17.066666 0 12.190476-2.438095 21.942857c-2.438095 7.314286-4.87619 14.628571-7.314286 19.504762s-4.87619 9.752381-9.752381 14.628572c-4.87619 4.87619-7.314286 9.752381-7.314286 17.066666 0 4.87619 0 12.190476 2.438095 21.942857 4.87619 17.066667 7.314286 21.942857 12.190477 21.942858s7.314286-7.314286 9.752381-21.942858c2.438095-14.628571 7.314286-26.819048 14.628571-36.571428s17.066667-19.504762 26.819048-29.257143c4.87619-4.87619 12.190476-9.752381 17.066666-12.190476s12.190476-7.314286 21.942857-9.752381c9.752381-2.438095 19.504762-7.314286 29.257143-9.752381 12.190476-2.438095 24.380952-4.87619 39.009524-9.752381l4.876191 4.87619c4.87619 2.438095 7.314286 7.314286 9.752381 9.752381 2.438095 2.438095 2.438095 4.87619 2.438095 7.314286v7.314286c0 2.438095-2.438095 7.314286-4.876191 12.190476 0 2.438095-2.438095 2.438095-2.438095 4.876191v2.438095c-12.190476 4.87619-21.942857 9.752381-34.133333 14.628571-12.190476 4.87619-21.942857 9.752381-29.257143 12.190476-9.752381 4.87619-14.628571 7.314286-19.504762 7.314286h-12.190476c-7.314286 0-9.752381 0-12.190476 4.876191s4.87619 9.752381 9.752381 14.628571c7.314286 4.87619 12.190476 7.314286 19.504761 7.314286s14.628571 0 21.942858-4.876191c7.314286-4.87619 17.066667-9.752381 24.380952-12.190476l14.628571-7.314286c-4.87619 12.190476-12.190476 21.942857-17.066666 34.133334-7.314286 14.628571-17.066667 26.819048-26.819048 43.885714-4.87619 0-7.314286 0-12.190476-2.438095H295.009524c-2.438095 0-12.190476 0-12.190476 4.87619v4.876191c2.438095 2.438095 7.314286 4.87619 14.628571 4.87619 2.438095 0 7.314286 2.438095 12.190476 2.438095 2.438095 0 4.87619 0 7.314286 2.438096-4.87619 4.87619-7.314286 12.190476-12.190476 17.066666-4.87619 7.314286-12.190476 14.628571-17.066667 24.380953-7.314286 7.314286-12.190476 14.628571-14.628571 21.942857-4.87619 4.87619-7.314286 9.752381-9.752381 14.628571-2.438095 4.87619-4.87619 9.752381-7.314286 12.190476l-7.314286 14.628572c-4.87619 7.314286-7.314286 12.190476-4.87619 17.066667 0 2.438095 2.438095 2.438095 4.87619 2.438095h2.438096c2.438095 0 7.314286-2.438095 19.504761-14.628572 14.628571-19.504762 29.257143-36.571429 43.885715-53.638095l36.571428-51.2c7.314286 2.438095 12.190476 4.87619 19.504762 9.752381 7.314286 2.438095 14.628571 7.314286 24.380953 12.190476 7.314286 4.87619 14.628571 9.752381 21.942857 12.190476 4.87619 2.438095 9.752381 4.87619 14.628571 9.752381-7.314286 9.752381-14.628571 17.066667-21.942857 24.380953s-17.066667 12.190476-26.819048 17.066666-19.504762 7.314286-29.257142 7.314286c-9.752381 2.438095-21.942857 2.438095-34.133334 2.438095-21.942857 0-24.380952 0-24.380952 4.876191s2.438095 4.87619 21.942857 9.752381 36.571429 7.314286 56.07619 4.87619c17.066667-2.438095 34.133333-9.752381 46.32381-19.504762 7.314286-4.87619 14.628571-12.190476 19.504762-17.066666 4.87619-4.87619 9.752381-12.190476 17.066667-17.066667 7.314286 4.87619 17.066667 12.190476 26.819047 19.504762 12.190476 7.314286 24.380952 17.066667 39.009524 26.819048 7.314286 4.87619 17.066667 9.752381 26.819048 14.628571s19.504762 9.752381 31.695238 14.628571c9.752381 4.87619 21.942857 9.752381 31.695238 12.190477 9.752381 4.87619 19.504762 7.314286 26.819047 7.314285 9.752381 2.438095 14.628571 2.438095 19.504762 2.438096 4.87619 0 7.314286-2.438095 7.314286-4.876191 4.87619-7.314286 2.438095-9.752381-9.752381-19.504762zM438.857143 299.885714c9.752381-2.438095 21.942857-2.438095 34.133333-4.87619 31.695238-4.87619 58.514286-7.314286 78.019048-9.752381h48.761905c9.752381 0 14.628571 2.438095 19.504761 2.438095 2.438095 0 4.87619 4.87619 9.752381 7.314286 2.438095 2.438095 2.438095 4.87619 2.438096 7.314286s-2.438095 2.438095-7.314286 4.87619c-19.504762 7.314286-36.571429 9.752381-48.761905 14.628571l-36.571428 7.314286c-21.942857 2.438095-24.380952 4.87619-26.819048 4.876191-7.314286-4.87619-14.628571-7.314286-24.380952-7.314286-7.314286 0-17.066667 2.438095-24.380953 4.87619-4.87619 2.438095-9.752381 4.87619-17.066666 7.314286l-4.876191 2.438095c2.438095-4.87619 2.438095-9.752381 0-17.066666-2.438095-4.87619-9.752381-12.190476-21.942857-19.504762 7.314286-4.87619 12.190476-4.87619 19.504762-4.876191z m12.190476 212.114286c-17.066667-12.190476-31.695238-19.504762-46.323809-26.819048-12.190476-7.314286-24.380952-12.190476-36.571429-14.628571l2.438095-2.438095c0-2.438095 2.438095-2.438095 2.438095-4.876191H380.342857c14.628571-2.438095 29.257143-4.87619 43.885714-12.190476s31.695238-14.628571 48.761905-26.819048c9.752381-7.314286 14.628571-7.314286 14.628572-7.314285s2.438095 2.438095-2.438096 19.504762c-4.87619 14.628571-12.190476 29.257143-19.504762 43.885714-2.438095 9.752381-9.752381 21.942857-14.628571 31.695238zM1192.228571 490.057143c-9.752381-2.438095-26.819048-4.87619-48.761904-7.314286-19.504762-2.438095-34.133333-2.438095-48.761905-2.438095h-41.447619c-12.190476 0-24.380952 0-34.133333 2.438095-9.752381 0-21.942857 2.438095-29.257143 4.876191h-4.876191c0-12.190476 0-26.819048 2.438095-41.447619 0-17.066667 0-36.571429 2.438096-53.638096v-53.638095-43.885714c7.314286 2.438095 12.190476 0 21.942857 0 9.752381-2.438095 19.504762-4.87619 31.695238-9.752381 9.752381-4.87619 19.504762-9.752381 31.695238-14.628572 9.752381-2.438095 19.504762-4.87619 26.819048-7.314285-7.314286 4.87619-12.190476 7.314286-17.066667 12.190476l-24.380952 14.628571c-7.314286 4.87619-14.628571 9.752381-24.380953 14.628572-7.314286 4.87619-17.066667 12.190476-26.819047 17.066666-2.438095 2.438095-12.190476 7.314286-9.752381 12.190477s7.314286 4.87619 14.628571 0c21.942857-14.628571 43.885714-26.819048 63.390476-36.571429 19.504762-12.190476 39.009524-21.942857 58.514286-31.695238 4.87619-2.438095 9.752381-7.314286 9.752381-9.752381 0-4.87619-2.438095-9.752381-7.314286-14.628571-2.438095-2.438095-7.314286-4.87619-9.752381-4.876191-2.438095 0-7.314286-2.438095-9.752381-2.438095h-2.438095c-4.87619 0-9.752381 2.438095-17.066667 2.438095-7.314286 2.438095-14.628571 4.87619-24.380952 9.752381-4.87619 2.438095-12.190476 4.87619-19.504762 7.314286s-17.066667 4.87619-24.380952 7.314285c-9.752381 2.438095-17.066667 4.87619-24.380953 7.314286-9.752381 2.438095-12.190476 2.438095-14.628571 2.438095V234.057143v-24.380953c0-7.314286 0-12.190476 2.438095-19.504761 0-7.314286-2.438095-17.066667-7.314286-24.380953-12.190476-7.314286-19.504762-14.628571-31.695238-19.504762-19.504762-7.314286-29.257143-9.752381-34.133333-4.87619-2.438095 2.438095-2.438095 2.438095-2.438095 4.87619 0 4.87619 4.87619 7.314286 12.190476 14.628572 9.752381 4.87619 14.628571 9.752381 19.504762 17.066666s7.314286 14.628571 7.314286 21.942858v229.180952c0 7.314286 0 14.628571-2.438096 24.380952 0 9.752381-2.438095 19.504762-4.87619 26.819048 0 2.438095 0 4.87619-2.438095 7.314286-7.314286 0-12.190476 2.438095-19.504762 2.438095-7.314286 2.438095-14.628571 2.438095-21.942857 4.87619-7.314286 2.438095-17.066667 4.87619-26.819048 7.314286-9.752381 2.438095-19.504762 4.87619-31.695238 9.752381-21.942857 4.87619-39.009524 9.752381-51.2 12.190476s-19.504762 2.438095-26.819048 0c-14.628571-4.87619-21.942857-4.87619-24.380952 0s0 9.752381 14.628571 26.819048c4.87619 7.314286 14.628571 9.752381 24.380953 9.752381s19.504762-2.438095 34.133333-7.314286c14.628571-4.87619 29.257143-9.752381 41.447619-14.628571s24.380952-7.314286 34.133333-9.752381c12.190476-2.438095 21.942857-4.87619 31.695238-7.314286l29.257143-7.314286c4.87619 4.87619 7.314286 7.314286 12.190477 7.314286s9.752381-4.87619 12.190476-12.190476h7.314285c2.438095 0 7.314286 0 9.752381-2.438095 19.504762-2.438095 39.009524-4.87619 58.514286-4.876191h53.638095c17.066667 0 31.695238 2.438095 43.885715 4.876191s24.380952 4.87619 31.695238 7.314285c21.942857 7.314286 34.133333 9.752381 39.009524 7.314286 2.438095-2.438095 2.438095-2.438095 2.438095-4.876191 0-4.87619-2.438095-9.752381-9.752381-19.504761-7.314286 0-14.628571-4.87619-24.380953-7.314286zM1684.72381 353.52381c2.438095-2.438095 4.87619-7.314286 9.75238-12.190477 2.438095-7.314286 7.314286-12.190476 12.190477-21.942857 4.87619-7.314286 7.314286-17.066667 12.190476-24.380952 4.87619-9.752381 7.314286-17.066667 9.752381-24.380953 4.87619-9.752381 9.752381-19.504762 14.628571-34.133333 2.438095-7.314286 4.87619-12.190476 4.876191-19.504762s-2.438095-14.628571-7.314286-19.504762c-9.752381-12.190476-21.942857-21.942857-36.571429-26.819047-12.190476-4.87619-24.380952-9.752381-36.571428-9.752381-14.628571 0-31.695238 2.438095-48.761905 7.314285-17.066667 4.87619-36.571429 12.190476-58.514286 21.942858-12.190476 4.87619-21.942857 12.190476-34.133333 19.504761-9.752381 7.314286-19.504762 14.628571-26.819048 24.380953l-2.438095-2.438095c-2.438095-2.438095-4.87619-4.87619-4.87619-9.752381-4.87619-7.314286-9.752381-12.190476-12.190476-12.190477s-4.87619 0-4.876191 2.438096c-2.438095 4.87619-2.438095 9.752381 0 17.066666 0 2.438095 0 7.314286 2.438095 12.190477 0 4.87619 2.438095 12.190476 2.438096 17.066666 0 7.314286 0 12.190476 2.438095 19.504762v90.209524c0 4.87619 0 9.752381 2.438095 17.066667 2.438095 7.314286 4.87619 12.190476 9.752381 17.066666 2.438095 4.87619 7.314286 7.314286 9.752381 7.314286 2.438095 4.87619 7.314286 7.314286 12.190476 7.314286h19.504762c7.314286 0 14.628571-2.438095 21.942857-2.438096 4.87619 0 12.190476-2.438095 19.504762-2.438095l-4.87619 51.2c-12.190476 2.438095-21.942857 4.87619-29.257143 7.314286-9.752381 2.438095-17.066667 2.438095-21.942857 2.438095-12.190476 0-19.504762 2.438095-26.819048 0-9.752381-2.438095-14.628571 0-17.066667 2.438095-2.438095 2.438095-2.438095 4.87619 0 7.314286 0 2.438095 2.438095 4.87619 7.314286 7.314286 9.752381 4.87619 19.504762 7.314286 31.695238 9.752381 12.190476 0 24.380952 0 36.571429-2.438095 2.438095 0 7.314286-2.438095 12.190476-2.438096l9.752381-2.438095v26.819048s-2.438095 0-2.438095 2.438095c-2.438095 0-2.438095 2.438095-2.438096 2.438095-9.752381 9.752381-19.504762 17.066667-26.819047 21.942857-7.314286 4.87619-14.628571 7.314286-17.066667 9.752381-2.438095 0-7.314286 2.438095-12.190476 2.438096s-9.752381 2.438095-12.190476 2.438095c-4.87619 0-9.752381 2.438095-12.190477 2.438095h-7.314285c-9.752381 0-12.190476 2.438095-14.628572 4.87619s0 7.314286 2.438096 12.190477c2.438095 7.314286 7.314286 9.752381 12.190476 12.190476h4.87619c4.87619 0 12.190476-2.438095 21.942857-4.876191l29.257143-7.314285c9.752381-2.438095 21.942857-4.87619 31.695238-4.876191 9.752381-2.438095 21.942857-2.438095 31.695238-4.87619 9.752381 0 19.504762-2.438095 29.257143-2.438096h78.019048c7.314286 0 14.628571 2.438095 17.066667 2.438096 12.190476 2.438095 19.504762 4.87619 24.380952 2.438095 2.438095-2.438095 7.314286-4.87619 2.438095-14.628571-2.438095-4.87619-4.87619-9.752381-9.752381-12.190477-4.87619-4.87619-12.190476-4.87619-24.380952-4.87619h-92.647619c-7.314286 0-14.628571 0-21.942857 2.438095v-12.190476-9.752381c7.314286-4.87619 12.190476-9.752381 17.066666-14.628571s9.752381-7.314286 14.628572-9.752381l14.628571-7.314286c7.314286-2.438095 9.752381-2.438095 9.752381-2.438095 9.752381 0 12.190476-4.87619 14.628572-7.314286 2.438095-4.87619 2.438095-9.752381-2.438096-14.628572-7.314286-4.87619-14.628571-9.752381-26.819047-9.75238-9.752381 0-21.942857 0-39.009524 2.438095v-24.380953-26.819047c2.438095 0 2.438095 0 4.87619-2.438095 2.438095 0 4.87619-2.438095 9.752381-2.438096 9.752381-2.438095 17.066667-4.87619 24.380953-7.314285 4.87619-2.438095 12.190476-2.438095 19.504762-2.438096h4.87619c4.87619 0 7.314286 0 9.752381-2.438095 0-2.438095 2.438095-2.438095 2.438095-7.314286s-2.438095-7.314286-4.87619-12.190476l4.87619-4.87619c-4.87619-2.438095 0-7.314286 2.438096-12.190476z m-109.714286 17.066666v12.190476c-9.752381 2.438095-17.066667 2.438095-24.380953 4.876191 4.87619-4.87619 9.752381-7.314286 12.190477-12.190476l12.190476-12.190477v7.314286z m0-46.323809v14.628571c-9.752381 9.752381-19.504762 21.942857-29.257143 29.257143-4.87619 4.87619-12.190476 9.752381-17.066667 12.190476-7.314286 4.87619-9.752381 4.87619-12.190476 7.314286H1511.619048v-2.438095-9.752381c0-12.190476-2.438095-21.942857-2.438096-34.133334v-21.942857c7.314286 2.438095 14.628571 4.87619 26.819048 2.438095 9.752381 0 19.504762-2.438095 26.819048-7.314285 2.438095-2.438095 7.314286-2.438095 9.752381-4.876191 2.438095 0 2.438095 0 4.87619-2.438095l-2.438095 17.066667z m2.438095-41.447619c-12.190476 4.87619-24.380952 7.314286-34.133333 9.752381-12.190476 2.438095-21.942857 4.87619-29.257143 4.87619H1511.619048v-12.190476c0-4.87619 0-9.752381 2.438095-12.190476v-12.190477c0-2.438095 0-4.87619-2.438095-9.75238 12.190476-9.752381 21.942857-17.066667 34.133333-24.380953 9.752381-7.314286 21.942857-12.190476 31.695238-17.066667v73.142858z m31.695238 202.361904l-4.87619 4.876191-7.314286 7.314286v-7.314286c4.87619-4.87619 9.752381-4.87619 12.190476-4.876191z m48.761905-136.533333c-4.87619 4.87619-7.314286 9.752381-7.314286 14.628571-7.314286 0-14.628571 2.438095-24.380952 4.876191l-21.942857 7.314286v-17.066667-19.504762l9.752381-9.752381c4.87619-2.438095 7.314286-4.87619 9.752381-7.314286 4.87619-4.87619 9.752381-7.314286 14.628571-12.190476s9.752381-7.314286 14.628571-7.314285c9.752381-4.87619 12.190476-9.752381 12.190477-17.066667 0-4.87619-4.87619-9.752381-17.066667-12.190476h-21.942857c-7.314286 0-12.190476 2.438095-19.504762 2.438095V214.552381v-14.628571c7.314286-2.438095 14.628571-4.87619 24.380952-7.314286 9.752381-2.438095 19.504762-4.87619 29.257143-4.876191 9.752381-2.438095 17.066667-2.438095 24.380953 0s14.628571 4.87619 19.504761 7.314286c4.87619 2.438095 7.314286 7.314286 9.752381 12.190476s2.438095 7.314286 0 12.190476c-4.87619 14.628571-9.752381 26.819048-12.190476 36.571429-4.87619 12.190476-7.314286 21.942857-12.190476 31.695238l-14.628571 29.257143c-7.314286 12.190476-12.190476 21.942857-17.066667 31.695238zM1462.857143 414.47619c0-2.438095-2.438095-4.87619-7.314286-4.87619-2.438095 0-7.314286 0-17.066667 7.314286-4.87619 2.438095-9.752381 4.87619-17.066666 9.752381-4.87619 2.438095-12.190476 7.314286-17.066667 12.190476s-12.190476 9.752381-17.066667 17.066667c0-2.438095 0-2.438095 2.438096-4.876191 4.87619-12.190476 9.752381-24.380952 12.190476-36.571429 4.87619-12.190476 7.314286-24.380952 9.752381-36.571428 2.438095-12.190476 4.87619-21.942857 7.314286-31.695238 2.438095-4.87619 0-9.752381 0-14.628572 2.438095-7.314286 2.438095-12.190476 4.87619-17.066666 2.438095-4.87619 2.438095-9.752381 2.438095-14.628572 2.438095-17.066667 7.314286-31.695238 9.752381-41.447619 2.438095-12.190476 7.314286-21.942857 9.752381-29.257143 4.87619-12.190476 7.314286-21.942857 4.876191-26.819047-2.438095-4.87619-9.752381-9.752381-19.504762-14.628572-19.504762-4.87619-34.133333 0-48.761905 12.190477-7.314286 7.314286-14.628571 12.190476-26.819048 19.504761-12.190476 4.87619-24.380952 9.752381-39.009523 14.628572-21.942857 4.87619-24.380952 7.314286-24.380953 9.752381v4.87619c2.438095 2.438095 4.87619 4.87619 12.190476 4.876191 7.314286 2.438095 14.628571 0 24.380953 0l29.257143-7.314286c9.752381-2.438095 19.504762-7.314286 26.819047-12.190476 9.752381-4.87619 17.066667-9.752381 24.380953-17.066667 4.87619-2.438095 4.87619-2.438095 7.314285-2.438095 0 0 2.438095 2.438095 0 14.628571 0 2.438095-2.438095 7.314286-2.438095 14.628572l-4.87619 24.380952c-2.438095 9.752381-4.87619 19.504762-7.314286 31.695238-2.438095 9.752381-4.87619 21.942857-7.314286 31.695238-2.438095 0-2.438095 2.438095-4.87619 2.438096s-4.87619 2.438095-7.314286 4.87619c-17.066667 9.752381-31.695238 21.942857-48.761905 34.133333-14.628571 12.190476-31.695238 24.380952-46.323809 39.009524-7.314286 7.314286-9.752381 12.190476-9.752381 17.066667 0 2.438095 2.438095 4.87619 2.438095 4.87619 4.87619 2.438095 12.190476 0 21.942857-4.87619h2.438095c2.438095 0 2.438095 2.438095 4.876191 4.87619 12.190476 9.752381 24.380952 17.066667 34.133333 19.504762 7.314286 2.438095 12.190476 4.87619 19.504762 4.876191-2.438095 4.87619-4.87619 9.752381-4.87619 14.628571-2.438095 4.87619-4.87619 9.752381-7.314286 12.190476-7.314286 12.190476-14.628571 19.504762-19.504762 24.380953s-12.190476 7.314286-17.066667 9.752381c-4.87619 0-9.752381 2.438095-12.190476 7.314285-4.87619 4.87619-7.314286 9.752381-4.87619 19.504762 2.438095 12.190476 4.87619 17.066667 12.190476 19.504762h2.438095c4.87619 0 12.190476-2.438095 17.066667-9.752381 9.752381-7.314286 17.066667-14.628571 21.942857-19.504762 4.87619-4.87619 12.190476-9.752381 21.942857-14.628571 12.190476-7.314286 21.942857-17.066667 29.257143-24.380952s14.628571-17.066667 21.942857-29.257143c2.438095-2.438095 4.87619-4.87619 7.314286-9.752381l9.752381-9.752381 9.752381-9.752381c4.87619-2.438095 4.87619-4.87619 7.314285-4.876191 2.438095-9.752381 7.314286-14.628571 4.876191-19.504762z m-90.209524-31.695238l-7.314286 21.942858c-2.438095 7.314286-4.87619 12.190476-7.314285 14.628571s-4.87619 4.87619-7.314286 4.87619h-12.190476c-4.87619 0-12.190476-2.438095-19.504762-7.314285-2.438095 0-4.87619-2.438095-7.314286-2.438096 9.752381-7.314286 21.942857-14.628571 31.695238-19.504761 12.190476-7.314286 21.942857-17.066667 34.133334-26.819048-2.438095 4.87619-2.438095 9.752381-4.876191 14.628571zM2026.057143 509.561905c-12.190476-9.752381-26.819048-19.504762-46.32381-26.819048-9.752381-4.87619-14.628571-4.87619-17.066666-2.438095l-2.438096 2.438095v2.438095c0 2.438095 2.438095 7.314286 9.752381 14.628572l29.257143 29.257143c9.752381 9.752381 24.380952 21.942857 39.009524 39.009523 7.314286 7.314286 14.628571 9.752381 17.066667 9.752381s4.87619 0 4.87619-2.438095c4.87619-4.87619 2.438095-12.190476-4.87619-26.819047-7.314286-17.066667-17.066667-29.257143-29.257143-39.009524zM2291.809524 234.057143c-4.87619 0-12.190476 0-21.942857 4.87619-4.87619 2.438095-12.190476 4.87619-19.504762 7.314286-4.87619 2.438095-12.190476 4.87619-19.504762 7.314286V226.742857c0-19.504762 2.438095-36.571429 2.438095-48.761905s2.438095-21.942857 7.314286-29.257142c2.438095-7.314286 2.438095-14.628571 2.438095-17.066667s-2.438095-7.314286-19.504762-14.628572c-24.380952-12.190476-31.695238-14.628571-36.571428-14.628571h-4.876191c-2.438095 0-2.438095 2.438095-2.438095 4.87619 0 4.87619 2.438095 9.752381 14.628571 24.380953 0 0 2.438095 4.87619 4.876191 19.504762V265.752381c-12.190476 4.87619-24.380952 9.752381-39.009524 17.066667s-29.257143 12.190476-43.885714 19.504762c-7.314286 4.87619-14.628571 7.314286-21.942857 7.314285-4.87619 0-9.752381 2.438095-14.628572 2.438095s-14.628571 0-17.066667 7.314286c0 4.87619 7.314286 9.752381 12.190477 12.190476 12.190476 4.87619 21.942857 7.314286 29.257142 7.314286 7.314286 0 17.066667-4.87619 26.819048-12.190476 7.314286-4.87619 17.066667-12.190476 29.257143-17.066667s24.380952-12.190476 36.571429-17.066666v60.952381c-12.190476 17.066667-24.380952 34.133333-36.571429 48.761904-12.190476 14.628571-24.380952 26.819048-36.571429 36.571429s-24.380952 19.504762-39.009523 26.819047c-12.190476 7.314286-26.819048 14.628571-39.009524 19.504762-7.314286 2.438095-12.190476 4.87619-9.752381 9.752381 0 2.438095 2.438095 4.87619 4.87619 4.876191h2.438096c4.87619 0 12.190476-2.438095 19.504761-4.876191 14.628571-4.87619 26.819048-9.752381 36.571429-14.628571 12.190476-4.87619 21.942857-12.190476 34.133333-19.504762 9.752381-7.314286 21.942857-17.066667 34.133334-29.257143 9.752381-9.752381 19.504762-21.942857 29.257143-34.133333 0 17.066667 0 34.133333 2.438095 48.761905 0 19.504762 0 39.009524 2.438095 53.638095v63.390476c0 19.504762-2.438095 24.380952-2.438095 26.819048 0 0-2.438095 2.438095-14.628572-4.876191-4.87619-2.438095-9.752381-4.87619-17.066666-9.752381-7.314286-4.87619-14.628571-9.752381-21.942857-17.066666-7.314286-4.87619-14.628571-12.190476-21.942858-17.066667s-14.628571-12.190476-19.504762-17.066667c-12.190476-12.190476-14.628571-12.190476-17.066666-12.190476h-4.876191v2.438095c0 2.438095 0 4.87619 17.066667 26.819048 4.87619 7.314286 12.190476 12.190476 19.504762 21.942857 7.314286 7.314286 17.066667 14.628571 26.819048 21.942857s19.504762 14.628571 26.819047 21.942857c9.752381 7.314286 17.066667 12.190476 21.942857 17.066667 12.190476 7.314286 19.504762 9.752381 24.380953 9.752381h2.438095c7.314286-2.438095 9.752381-9.752381 9.752381-26.819048v-31.695238l-2.438095-58.514286c0-21.942857-2.438095-48.761905-2.438096-75.580952s-2.438095-51.2-2.438095-78.019048l9.752381-9.75238c2.438095-2.438095 7.314286-4.87619 9.752381-7.314286 4.87619-2.438095 7.314286-7.314286 7.314286-14.628572 0-4.87619-2.438095-12.190476-7.314286-24.380952-4.87619-4.87619-7.314286-9.752381-9.752381-9.752381-2.438095 0-4.87619 2.438095-7.314286 4.876191v-2.438096-19.504762c9.752381-2.438095 17.066667-4.87619 24.380953-9.752381 9.752381-2.438095 17.066667-4.87619 21.942857-4.87619 19.504762-2.438095 24.380952-7.314286 26.819048-9.752381 2.438095-2.438095 4.87619-7.314286 0-17.066667 4.87619 0 0-4.87619-7.314286-4.87619z" p-id="2307" fill="#ffffff"></path><path d="M1989.485714 448.609524c9.752381 12.190476 14.628571 24.380952 17.066667 34.133333 2.438095 4.87619 4.87619 14.628571 12.190476 14.628572 4.87619 0 9.752381-4.87619 12.190476-17.066667 2.438095-9.752381 4.87619-21.942857 7.314286-39.009524 2.438095-14.628571 2.438095-34.133333 4.876191-51.2v-53.638095c0-17.066667-2.438095-34.133333-2.438096-46.32381 0-9.752381-2.438095-19.504762-2.438095-26.819047V243.809524v-14.628572-12.190476c0-9.752381 0-19.504762-2.438095-24.380952-2.438095-7.314286-9.752381-12.190476-19.504762-21.942857-4.87619-4.87619-12.190476-4.87619-21.942857-7.314286-9.752381 0-24.380952 2.438095-43.885715 7.314286-9.752381 2.438095-17.066667 7.314286-21.942857 12.190476-7.314286 4.87619-12.190476 9.752381-17.066666 17.066667s-7.314286 12.190476-9.752381 17.066666c0 2.438095-2.438095 9.752381-4.876191 14.628572 0-2.438095-2.438095-2.438095-2.438095-4.876191-2.438095-2.438095-4.87619-7.314286-9.752381-12.190476s-7.314286-4.87619-9.752381-4.876191h-2.438095l-2.438095 2.438096c-2.438095 2.438095 0 4.87619 0 9.752381 4.87619 14.628571 7.314286 26.819048 9.752381 39.009523 0 12.190476 0 21.942857-2.438096 31.695239 0 2.438095-2.438095 9.752381-2.438095 14.628571l-2.438095 24.380952c0 9.752381-2.438095 17.066667-2.438095 26.819048 0 9.752381-2.438095 17.066667-2.438096 26.819048v36.571428c0 7.314286 2.438095 17.066667 4.876191 21.942857 2.438095 7.314286 7.314286 14.628571 12.190476 21.942857 2.438095 2.438095 4.87619 4.87619 7.314286 4.876191 2.438095 0 2.438095 0 4.87619-2.438095s2.438095-4.87619 2.438095-19.504762c0-9.752381-2.438095-19.504762-2.438095-34.133334v-41.447619c0-14.628571 0-29.257143 2.438095-43.885714l7.314286-43.885714c2.438095-12.190476 4.87619-19.504762 4.876191-24.380953v-9.75238c0-12.190476 2.438095-21.942857 4.87619-29.257143s4.87619-9.752381 9.752381-12.190477c9.752381-7.314286 19.504762-12.190476 29.257143-14.628571 9.752381-2.438095 17.066667-4.87619 24.380952-4.87619h12.190477c2.438095 0 4.87619 2.438095 7.314285 7.314285 2.438095 4.87619 4.87619 9.752381 7.314286 19.504762 2.438095 9.752381 2.438095 21.942857 4.87619 36.571429 0 9.752381 0 24.380952 2.438096 39.009524v124.342857c0 7.314286-2.438095 14.628571-2.438096 17.066666v4.876191l-2.438095-2.438095c-9.752381-7.314286-21.942857-19.504762-36.571428-31.695238-2.438095-2.438095-7.314286-4.87619-7.314286-4.876191v-2.438095-4.876191c2.438095-19.504762 4.87619-34.133333 7.314286-48.761904 2.438095-14.628571 2.438095-26.819048 2.438095-34.133334v-21.942857c0-4.87619-2.438095-9.752381-4.876191-14.628571-2.438095-4.87619-4.87619-7.314286-7.314285-9.752381-2.438095-2.438095-7.314286-2.438095-12.190477-4.876191-9.752381-2.438095-14.628571-2.438095-19.504761 0-2.438095 2.438095-2.438095 2.438095-2.438096 4.876191s2.438095 4.87619 4.876191 9.752381c4.87619 4.87619 7.314286 9.752381 9.752381 14.628571 2.438095 7.314286 2.438095 17.066667 2.438095 26.819048 0 24.380952-2.438095 48.761905-4.87619 73.142857-2.438095 21.942857-9.752381 46.32381-14.628572 68.266667-4.87619 17.066667-9.752381 31.695238-14.628571 43.885714-4.87619 9.752381-9.752381 19.504762-14.628572 26.819047-4.87619 7.314286-9.752381 12.190476-17.066666 14.628572-7.314286 2.438095-14.628571 7.314286-24.380953 9.752381-7.314286 2.438095-12.190476 4.87619-12.190476 7.314286 0 4.87619 7.314286 7.314286 12.190476 9.75238h19.504762l21.942857-7.314285c7.314286-4.87619 14.628571-9.752381 21.942857-17.066667 7.314286-7.314286 12.190476-17.066667 17.066667-29.257143 2.438095-7.314286 4.87619-12.190476 7.314286-19.504762l7.314285-21.942857c2.438095-7.314286 4.87619-17.066667 7.314286-29.257143 2.438095-7.314286 4.87619-17.066667 4.876191-26.819047l2.438095 2.438095c4.87619 4.87619 14.628571 17.066667 24.380952 29.257143zM2884.266667 611.961905c-4.87619-4.87619-12.190476-9.752381-21.942857-17.066667-4.87619-4.87619-12.190476-7.314286-19.504762-12.190476s-14.628571-7.314286-21.942858-12.190476-14.628571-7.314286-21.942857-9.752381l-21.942857-7.314286c-9.752381-2.438095-14.628571-2.438095-14.628571 0-2.438095 4.87619 2.438095 7.314286 9.752381 14.628571 17.066667 12.190476 31.695238 26.819048 46.323809 36.571429 14.628571 12.190476 31.695238 21.942857 51.2 31.695238 9.752381 4.87619 14.628571 7.314286 17.066667 7.314286h2.438095c2.438095 0 2.438095-2.438095 4.876191-2.438095 2.438095-2.438095 2.438095-4.87619 0-12.190477s-4.87619-12.190476-9.752381-17.066666zM2867.2 119.466667c7.314286 0 14.628571 4.87619 21.942857 12.190476l21.942857 21.942857c4.87619 4.87619 7.314286 7.314286 12.190476 9.752381h4.876191c2.438095 0 4.87619 0 7.314286-2.438095 2.438095-2.438095 4.87619-4.87619 4.87619-9.752381 0-2.438095 0-7.314286-2.438095-12.190476-2.438095-2.438095-4.87619-7.314286-7.314286-12.190477-2.438095-4.87619-7.314286-7.314286-12.190476-12.190476-4.87619-2.438095-9.752381-7.314286-14.628571-9.752381s-12.190476-4.87619-19.504762-4.87619h-14.628572c-4.87619 0-7.314286 2.438095-9.752381 2.438095-4.87619 2.438095-4.87619 7.314286-2.438095 9.752381 0 4.87619 4.87619 7.314286 9.752381 7.314286zM2954.971429 368.152381c-2.438095-21.942857-2.438095-43.885714-4.876191-68.266667 0-4.87619 0-14.628571-7.314286-14.628571h-2.438095c-4.87619 2.438095-7.314286 7.314286-7.314286 17.066667v73.142857c0 7.314286-2.438095 9.752381-2.438095 9.752381s-2.438095 0-4.87619-2.438096c-7.314286-7.314286-12.190476-14.628571-17.066667-19.504762l-14.628571-21.942857c-4.87619-7.314286-12.190476-19.504762-17.066667-29.257143-7.314286-12.190476-14.628571-26.819048-24.380952-46.323809-2.438095-4.87619-7.314286-12.190476-9.752381-17.066667s-4.87619-9.752381-7.314286-12.190476c9.752381-7.314286 19.504762-12.190476 29.257143-19.504762 12.190476-7.314286 21.942857-14.628571 34.133333-21.942857 7.314286-4.87619 9.752381-7.314286 12.190476-12.190476 0-2.438095 0-4.87619-2.438095-7.314286-2.438095-4.87619-9.752381-7.314286-19.504762-7.314286-7.314286 0-14.628571-2.438095-21.942857-2.438095-7.314286-2.438095-19.504762-4.87619-34.133333-12.190476-7.314286-2.438095-9.752381-2.438095-9.752381-2.438095h-2.438096l-2.438095 2.438095v2.438095c0 2.438095 2.438095 2.438095 9.752381 7.314286 4.87619 2.438095 9.752381 4.87619 12.190476 7.314286 2.438095 2.438095 7.314286 2.438095 9.752381 4.87619s4.87619 2.438095 7.314286 4.876191c2.438095 0 2.438095 2.438095 4.876191 2.438095-14.628571 12.190476-29.257143 21.942857-41.44762 29.257143-4.87619-12.190476-9.752381-21.942857-14.628571-31.695238-4.87619-12.190476-9.752381-21.942857-14.628571-34.133334l-9.752381-19.504762c-2.438095-4.87619-4.87619-9.752381-9.752381-14.628571-7.314286-7.314286-14.628571-14.628571-21.942857-19.504762-7.314286-2.438095-17.066667-4.87619-26.819048-7.314286h-7.314286c-4.87619 0-7.314286 2.438095-7.314285 4.876191 0 4.87619 2.438095 7.314286 12.190476 12.190476 7.314286 4.87619 12.190476 9.752381 19.504762 14.628571 7.314286 7.314286 12.190476 14.628571 17.066666 24.380953 7.314286 14.628571 14.628571 31.695238 21.942857 46.323809s14.628571 26.819048 19.504762 41.447619l-21.942857 14.628572c-7.314286 4.87619-17.066667 12.190476-26.819047 17.066666-9.752381 7.314286-17.066667 12.190476-24.380953 12.190477-4.87619 2.438095-12.190476 2.438095-19.504762 4.87619-4.87619 0-14.628571 0-17.066666 7.314286 0 4.87619 4.87619 9.752381 19.504762 12.190476 7.314286 2.438095 17.066667 2.438095 24.380952 2.438095s19.504762-7.314286 31.695238-17.066666c7.314286-4.87619 14.628571-12.190476 21.942857-17.066667s12.190476-9.752381 19.504762-14.628571c0 0 0 2.438095 2.438095 2.438095 12.190476 26.819048 24.380952 48.761905 36.571429 68.266666s21.942857 36.571429 31.695238 51.2c9.752381 14.628571 19.504762 26.819048 29.257143 36.571429 9.752381 9.752381 19.504762 19.504762 29.257143 26.819048 7.314286 4.87619 12.190476 7.314286 17.066666 7.314285h2.438096c2.438095 0 2.438095-2.438095 4.87619-2.438095 2.438095-2.438095 2.438095-9.752381 0-19.504762-2.438095-12.190476-4.87619-31.695238-4.87619-53.638095zM2611.2 343.771429v29.257142c0 4.87619 0 7.314286-2.438095 12.190477 0 4.87619-2.438095 7.314286-2.438095 12.190476-4.87619 19.504762-2.438095 36.571429 2.438095 46.323809 4.87619 7.314286 7.314286 9.752381 9.752381 12.190477h2.438095c4.87619 0 7.314286-7.314286 9.752381-14.628572 2.438095-9.752381 2.438095-17.066667 2.438095-24.380952v-19.504762-21.942857c0-4.87619 2.438095-12.190476 2.438095-19.504762 2.438095-4.87619 2.438095-12.190476 4.876191-14.628572 0-4.87619 2.438095-7.314286 4.87619-9.752381 2.438095-2.438095 2.438095-7.314286 4.876191-9.752381 2.438095-2.438095 4.87619-7.314286 7.314286-12.190476 4.87619-7.314286 4.87619-12.190476 4.87619-14.628571s-2.438095-2.438095-4.87619-2.438095-4.87619 2.438095-7.314286 4.87619c-4.87619 7.314286-7.314286 12.190476-12.190476 19.504762-2.438095 2.438095-4.87619 7.314286-4.876191 12.190476-2.438095-7.314286-7.314286-14.628571-14.628571-19.504762-7.314286-7.314286-14.628571-12.190476-21.942857-17.066666 9.752381-12.190476 19.504762-21.942857 29.257142-31.695239 9.752381-12.190476 17.066667-21.942857 24.380953-29.257142 4.87619-4.87619 9.752381-12.190476 12.190476-14.628572 2.438095-4.87619 7.314286-7.314286 9.752381-12.190476 2.438095-2.438095 4.87619-7.314286 7.314286-9.752381l7.314285-7.314286c4.87619-4.87619 7.314286-12.190476 0-21.942857-4.87619-7.314286-14.628571-14.628571-26.819047-21.942857s-17.066667-7.314286-19.504762-7.314286c-2.438095 0-4.87619 0-4.876191 2.438096-4.87619 4.87619 2.438095 14.628571 4.876191 17.066666 9.752381 9.752381 14.628571 14.628571 14.628571 19.504762 0 2.438095 0 4.87619-2.438095 9.752381-7.314286 9.752381-17.066667 19.504762-21.942857 29.257143-7.314286 7.314286-12.190476 17.066667-19.504762 24.380952-4.87619 7.314286-12.190476 14.628571-19.504762 21.942857-7.314286 7.314286-12.190476 14.628571-19.504762 21.942858l-19.504762 19.504762c-4.87619 4.87619-7.314286 7.314286-12.190476 9.75238-2.438095 2.438095-7.314286 4.87619-7.314286 9.752381-2.438095 4.87619-2.438095 9.752381-2.438095 14.628572 2.438095 7.314286 4.87619 14.628571 12.190476 14.628571 2.438095 0 7.314286-2.438095 17.066667-12.190476 4.87619-4.87619 9.752381-9.752381 12.190476-14.628571 2.438095-4.87619 7.314286-7.314286 9.752381-12.190477 9.752381 7.314286 17.066667 14.628571 21.942857 19.504762 4.87619-2.438095 7.314286 2.438095 7.314286 12.190477z" p-id="2308" fill="#ffffff"></path><path d="M2837.942857 355.961905c-4.87619-9.752381-14.628571-19.504762-26.819047-24.380953-9.752381-4.87619-19.504762-7.314286-26.819048-7.314285-9.752381 0-17.066667 0-24.380952 2.438095-14.628571 4.87619-31.695238 12.190476-43.885715 21.942857s-21.942857 19.504762-31.695238 31.695238c-2.438095-2.438095-4.87619-4.87619-7.314286-4.87619h-2.438095c-2.438095 0-7.314286 4.87619-4.87619 12.190476v19.504762c0 7.314286-2.438095 14.628571-2.438096 26.819047-2.438095 12.190476-2.438095 24.380952-2.438095 34.133334v31.695238c0 9.752381 2.438095 17.066667 4.876191 26.819047 2.438095 7.314286 7.314286 14.628571 9.752381 21.942858 4.87619 9.752381 9.752381 14.628571 17.066666 14.628571 4.87619 0 7.314286-7.314286 7.314286-17.066667-2.438095-17.066667-2.438095-34.133333-4.87619-51.2 0-14.628571-2.438095-31.695238-2.438096-51.2V414.47619c0-4.87619-2.438095-12.190476-2.438095-17.066666 4.87619-4.87619 7.314286-9.752381 12.190476-12.190476 4.87619-4.87619 9.752381-7.314286 14.628572-9.752381 4.87619-2.438095 9.752381-4.87619 17.066666-7.314286 7.314286-2.438095 14.628571-4.87619 24.380953-7.314286 17.066667-4.87619 29.257143-4.87619 41.447619 0 9.752381 4.87619 17.066667 17.066667 17.066666 36.571429v112.152381c0 7.314286-2.438095 14.628571-2.438095 24.380952s0 17.066667 2.438095 21.942857c0 9.752381 2.438095 14.628571 7.314286 17.066667h2.438095c4.87619 0 9.752381-7.314286 9.752381-9.752381 2.438095-7.314286 7.314286-19.504762 7.314286-34.133333 2.438095-14.628571 2.438095-29.257143 2.438095-46.32381V438.857143v-36.571429c-4.87619-21.942857-7.314286-36.571429-12.190476-46.323809z" p-id="2309" fill="#ffffff"></path><path d="M2762.361905 399.847619c-2.438095-4.87619-7.314286-9.752381-17.066667-12.190476-14.628571-4.87619-24.380952-4.87619-26.819048-2.438095-2.438095 2.438095-2.438095 4.87619-2.438095 4.87619 0 2.438095 2.438095 7.314286 7.314286 9.752381l4.87619 4.876191c2.438095 2.438095 2.438095 4.87619 2.438096 7.314285 0 4.87619 2.438095 9.752381 2.438095 17.066667v26.819048c0 14.628571-2.438095 29.257143-4.876191 43.885714-2.438095 12.190476-4.87619 24.380952-9.752381 36.571428-4.87619 9.752381-9.752381 21.942857-14.628571 29.257143l-21.942857 29.257143c-9.752381 7.314286-17.066667 14.628571-26.819048 21.942857-9.752381 4.87619-24.380952 9.752381-39.009524 14.628572-9.752381 2.438095-14.628571 4.87619-12.190476 12.190476 0 4.87619 4.87619 7.314286 14.628572 7.314286 9.752381 0 17.066667-2.438095 26.819047-2.438096 9.752381-2.438095 17.066667-4.87619 24.380953-7.314285 7.314286-4.87619 17.066667-9.752381 24.380952-17.066667 7.314286-7.314286 17.066667-14.628571 24.380952-26.819048 12.190476-14.628571 21.942857-31.695238 29.257143-51.2 7.314286-19.504762 12.190476-39.009524 12.190477-58.514285 0-14.628571 2.438095-29.257143 2.438095-41.447619s2.438095-21.942857 2.438095-29.257143c0-7.314286 0-12.190476-2.438095-17.066667zM3476.72381 551.009524c-2.438095-4.87619-4.87619-12.190476-7.314286-19.504762s-7.314286-14.628571-9.752381-21.942857c-2.438095-7.314286-7.314286-14.628571-9.752381-21.942857-4.87619-7.314286-7.314286-14.628571-9.752381-19.504762-9.752381-19.504762-12.190476-19.504762-17.066667-19.504762h-2.438095v2.438095c-2.438095 2.438095-2.438095 4.87619 0 17.066667 2.438095 7.314286 4.87619 14.628571 4.876191 21.942857 2.438095 4.87619 2.438095 12.190476 4.87619 17.066667-24.380952 4.87619-46.32381 9.752381-63.390476 12.190476-17.066667 2.438095-34.133333 7.314286-46.32381 9.752381v-7.314286-17.066667c0-12.190476 2.438095-24.380952 2.438096-36.571428v-39.009524c21.942857-9.752381 43.885714-21.942857 60.95238-36.571429 12.190476-9.752381 24.380952-24.380952 36.571429-43.885714s24.380952-41.447619 36.571429-65.828571c4.87619-9.752381 7.314286-21.942857 7.314285-34.133334s-7.314286-24.380952-21.942857-39.009524c-7.314286-7.314286-14.628571-9.752381-24.380952-9.75238s-17.066667 7.314286-19.504762 17.066666c-7.314286 24.380952-17.066667 43.885714-26.819048 53.638095-9.752381 12.190476-19.504762 19.504762-29.257143 21.942858-4.87619 2.438095-7.314286 2.438095-12.190476 4.87619-2.438095 0-4.87619 2.438095-7.314285 2.438095V238.933333 177.980952c0-12.190476 0-21.942857-2.438096-31.695238s-4.87619-17.066667-7.314285-21.942857l-14.628572-14.628571c-7.314286-2.438095-14.628571-7.314286-24.380952-9.752381-4.87619 0-7.314286-2.438095-12.190476-2.438095-2.438095 0-4.87619 0-7.314286 2.438095 0 2.438095-2.438095 2.438095 0 4.87619 0 2.438095 2.438095 4.87619 9.752381 9.752381 12.190476 7.314286 19.504762 14.628571 24.380952 21.942857s7.314286 19.504762 7.314286 34.133334v68.266666c0 24.380952 0 48.761905-2.438095 73.142857-36.571429 17.066667-70.704762 34.133333-97.52381 51.2-14.628571 9.752381-21.942857 12.190476-24.380952 12.190477 0-2.438095 0-9.752381 7.314285-29.257143 14.628571-41.447619 19.504762-73.142857 9.752381-97.52381-4.87619-12.190476-7.314286-17.066667-12.190476-17.066666-7.314286 0-7.314286 12.190476-7.314285 17.066666 0 21.942857-2.438095 41.447619-7.314286 60.952381s-9.752381 36.571429-14.628572 51.2c-4.87619 9.752381-4.87619 17.066667-4.87619 21.942857s2.438095 9.752381 4.87619 14.628572c4.87619 7.314286 12.190476 9.752381 19.504762 9.752381s17.066667-4.87619 29.257143-14.628572c14.628571-9.752381 31.695238-19.504762 48.761905-29.257143 14.628571-7.314286 31.695238-17.066667 48.761905-24.380952V414.47619c-9.752381 2.438095-17.066667 4.87619-26.819048 4.876191-9.752381 0-19.504762 2.438095-29.257143 2.438095s-19.504762 0-26.819047 2.438095c-9.752381 2.438095-14.628571 9.752381-19.504762 19.504762-12.190476 21.942857-19.504762 43.885714-26.819048 58.514286-7.314286 17.066667-12.190476 31.695238-17.066667 46.32381-4.87619 12.190476-7.314286 21.942857-7.314285 31.695238 0 7.314286 2.438095 14.628571 4.87619 19.504762 4.87619 7.314286 9.752381 12.190476 17.066667 12.190476 7.314286 0 17.066667-4.87619 29.257143-12.190476 7.314286-4.87619 17.066667-12.190476 29.257143-17.066667s29.257143-12.190476 46.323809-19.504762c19.504762-7.314286 41.447619-12.190476 68.266667-19.504762s58.514286-14.628571 92.647619-21.942857H3435.27619c2.438095 9.752381 7.314286 21.942857 12.190477 34.133333s12.190476 26.819048 17.066666 41.447619c7.314286 14.628571 9.752381 17.066667 12.190477 17.066667 2.438095 0 4.87619-2.438095 9.75238-17.066667 0-4.87619 0-9.752381-2.438095-21.942857 0-7.314286-4.87619-17.066667-7.314285-24.380952z m-153.6-221.866667l14.628571-7.314286c4.87619-2.438095 12.190476-4.87619 19.504762-7.314285 2.438095-2.438095 7.314286-4.87619 12.190476-9.752381l14.628571-14.628572c4.87619-4.87619 9.752381-12.190476 12.190477-19.504762 4.87619-7.314286 7.314286-14.628571 7.314285-21.942857 2.438095-17.066667 9.752381-26.819048 17.066667-29.257143 0 0 2.438095 0 7.314286 4.876191 2.438095 4.87619 4.87619 9.752381 4.87619 17.066667 0 9.752381-2.438095 21.942857-7.314285 34.133333s-9.752381 26.819048-17.066667 39.009524-14.628571 24.380952-24.380953 36.571428-17.066667 21.942857-26.819047 29.257143c-7.314286 4.87619-14.628571 12.190476-19.504762 17.066667-4.87619 2.438095-9.752381 7.314286-14.628571 9.752381v-78.019048z m-160.914286 282.819048z m129.219047-80.457143c-12.190476 2.438095-21.942857 7.314286-31.695238 9.752381-9.752381 4.87619-19.504762 7.314286-29.257143 12.190476s-17.066667 7.314286-24.380952 12.190476-17.066667 7.314286-24.380952 12.190476-9.752381 4.87619-12.190476 4.876191c0 0-2.438095-4.87619 4.87619-24.380952 2.438095-14.628571 7.314286-31.695238 14.628571-48.761905 4.87619-19.504762 12.190476-36.571429 21.942858-53.638095 2.438095-4.87619 4.87619-9.752381 9.752381-9.752381 2.438095 0 7.314286-2.438095 17.066666-2.438096 19.504762 0 39.009524-2.438095 56.076191-7.314285v29.257142c0 12.190476 0 24.380952-2.438096 36.571429s0 21.942857 0 29.257143zM3939.961905 348.647619c2.438095-4.87619 2.438095-9.752381-2.438095-12.190476-7.314286-4.87619-19.504762-4.87619-34.133334 2.438095l-12.190476 7.314286c-2.438095 0-4.87619 2.438095-7.314286 2.438095 0-14.628571 2.438095-29.257143 2.438096-43.885714s2.438095-31.695238 2.438095-46.32381h21.942857c17.066667 0 21.942857-2.438095 24.380952-2.438095 4.87619-2.438095 7.314286-7.314286 4.876191-12.190476 0-4.87619-4.87619-7.314286-7.314286-9.752381-4.87619-2.438095-12.190476-2.438095-19.504762-2.438095h-19.504762c0-9.752381 2.438095-19.504762 2.438095-29.257143 0-9.752381 2.438095-19.504762 2.438096-29.257143 2.438095-12.190476 2.438095-21.942857 0-31.695238 0-9.752381-2.438095-17.066667-7.314286-21.942857-2.438095-7.314286-7.314286-12.190476-14.628571-17.066667-4.87619-4.87619-12.190476-7.314286-19.504762-9.752381-12.190476-4.87619-19.504762-4.87619-24.380953-2.438095-2.438095 2.438095-2.438095 4.87619-2.438095 4.87619 0 4.87619 2.438095 7.314286 9.752381 12.190476 12.190476 7.314286 21.942857 17.066667 24.380952 24.380953 2.438095 9.752381 4.87619 21.942857 2.438096 39.009524 0 9.752381-2.438095 21.942857-2.438096 31.695238s-2.438095 19.504762-2.438095 31.695238H3830.247619c-9.752381 0-17.066667 0-21.942857-2.438095s-9.752381-4.87619-12.190476-7.314286c-7.314286-4.87619-9.752381-4.87619-12.190476-4.876191h-2.438096l-2.438095 2.438096v2.438095c0 2.438095 0 4.87619 7.314286 14.628571 4.87619 7.314286 12.190476 12.190476 19.504762 17.066667s14.628571 7.314286 21.942857 7.314286h34.133333c0 17.066667-2.438095 34.133333-2.438095 53.638095s-2.438095 36.571429-2.438095 53.638095c-14.628571 9.752381-26.819048 17.066667-41.447619 26.819048-14.628571 9.752381-26.819048 19.504762-41.447619 26.819047-9.752381 7.314286-19.504762 12.190476-29.257143 12.190477-9.752381 2.438095-24.380952 0-39.009524-7.314286-12.190476-4.87619-17.066667-4.87619-21.942857-2.438095-2.438095 0-2.438095 2.438095-2.438095 4.87619s2.438095 7.314286 12.190476 17.066667c17.066667 12.190476 31.695238 19.504762 48.761904 19.504762s34.133333-9.752381 56.076191-24.380953c7.314286-7.314286 17.066667-14.628571 29.257143-21.942857 9.752381-4.87619 17.066667-12.190476 26.819047-17.066666 0 24.380952-2.438095 48.761905-2.438095 68.266666v78.019048c0 7.314286-2.438095 12.190476-4.87619 12.190476-2.438095 2.438095-4.87619 2.438095-7.314286 2.438095-4.87619 0-12.190476-2.438095-19.504762-7.314285-7.314286-2.438095-12.190476-4.87619-19.504762-7.314286-2.438095-2.438095-4.87619-2.438095-9.752381-4.876191 0 0 2.438095 0 2.438095-2.438095l9.752381-7.314286c9.752381-4.87619 14.628571-9.752381 12.190477-14.628571 0-2.438095-2.438095-4.87619-7.314286-4.876191-2.438095 0-4.87619 0-14.628572 4.876191-4.87619 2.438095-9.752381 4.87619-12.190476 7.314286-2.438095 2.438095-7.314286 4.87619-9.752381 4.87619l-29.257143-14.628571c-9.752381-4.87619-19.504762-9.752381-31.695238-14.628572-14.628571-7.314286-26.819048-9.752381-36.571428-4.87619-9.752381 2.438095-17.066667 9.752381-21.942857 21.942857-2.438095 4.87619-4.87619 12.190476-4.876191 21.942857 0 7.314286-2.438095 17.066667-2.438095 26.819048s0 19.504762 2.438095 26.819047c0 9.752381 2.438095 17.066667 4.876191 21.942857 2.438095 14.628571 9.752381 21.942857 17.066666 21.942858s14.628571-4.87619 21.942857-14.628572c9.752381-9.752381 19.504762-19.504762 34.133334-31.695238 12.190476-12.190476 29.257143-24.380952 46.323809-36.571428 14.628571 7.314286 26.819048 17.066667 36.571429 24.380952 12.190476 7.314286 21.942857 17.066667 29.257143 24.380952 9.752381 9.752381 17.066667 14.628571 24.380952 14.628572h2.438095c7.314286 0 12.190476-7.314286 14.628572-19.504762 2.438095-9.752381 2.438095-24.380952 4.87619-39.009524v-65.828571-46.32381c0-19.504762 2.438095-41.447619 2.438096-65.828571 7.314286-4.87619 17.066667-9.752381 21.942857-14.628572 7.314286-4.87619 12.190476-7.314286 17.066666-9.752381 7.314286-4.87619 12.190476-7.314286 14.628572-12.190476z m-253.561905 243.809524c-4.87619 4.87619-7.314286 4.87619-7.314286 4.87619 0-2.438095-2.438095-4.87619-2.438095-14.628571v-29.257143c0-12.190476 0-19.504762 2.438095-29.257143 0-4.87619 4.87619-7.314286 9.752381-7.314286h4.876191c4.87619 0 9.752381 2.438095 14.628571 4.876191 7.314286 4.87619 17.066667 7.314286 26.819048 12.190476 7.314286 4.87619 14.628571 7.314286 21.942857 12.190476-34.133333 14.628571-56.07619 31.695238-70.704762 46.32381zM4030.171429 497.371429c-4.87619-4.87619-9.752381-9.752381-17.066667-12.190477s-14.628571-7.314286-21.942857-9.752381c-7.314286-2.438095-17.066667-2.438095-24.380953-4.87619h-2.438095c-7.314286 0-17.066667 0-24.380952 2.438095-4.87619 2.438095-7.314286 2.438095-7.314286 4.876191v4.87619c0 2.438095 2.438095 4.87619 7.314286 4.876191h2.438095c12.190476 0 21.942857 0 29.257143 2.438095s14.628571 4.87619 21.942857 9.752381c14.628571 9.752381 24.380952 21.942857 29.257143 39.009524v4.87619s0 2.438095-14.628572-2.438095c-7.314286-2.438095-14.628571-7.314286-24.380952-12.190476-12.190476-7.314286-14.628571-7.314286-17.066667-7.314286-2.438095 0-4.87619 2.438095-4.87619 2.438095 0 2.438095-2.438095 2.438095 0 4.876191 0 2.438095 2.438095 7.314286 14.628571 14.628571 9.752381 7.314286 19.504762 12.190476 24.380953 17.066667 7.314286 4.87619 12.190476 12.190476 21.942857 19.504762 4.87619 4.87619 9.752381 7.314286 12.190476 7.314285h4.876191c7.314286-2.438095 9.752381-9.752381 12.190476-19.504762 2.438095-12.190476 2.438095-24.380952 0-34.133333-4.87619-12.190476-12.190476-24.380952-21.942857-36.571428zM4254.47619 341.333333c4.87619 4.87619 9.752381 9.752381 17.066667 12.190477 12.190476 4.87619 21.942857 7.314286 29.257143 7.314285h4.87619c9.752381-2.438095 17.066667-7.314286 21.942858-14.628571l14.628571-21.942857c7.314286-7.314286 12.190476-12.190476 14.628571-17.066667 7.314286-7.314286 9.752381-12.190476 7.314286-17.066667 0-2.438095-2.438095-4.87619-4.87619-4.87619s-7.314286 2.438095-14.628572 9.752381c-9.752381 9.752381-19.504762 19.504762-26.819047 24.380952s-14.628571 9.752381-19.504762 12.190476-9.752381 2.438095-14.628572 0c-4.87619-2.438095-9.752381-4.87619-14.628571-9.752381 0 0-2.438095-2.438095-2.438095-4.87619v-9.752381c0-2.438095 2.438095-7.314286 4.87619-12.190476 2.438095-2.438095 4.87619-7.314286 9.752381-9.752381 4.87619-2.438095 7.314286-4.87619 7.314286-9.752381 0 0 0-2.438095-4.876191-4.876191-4.87619 0-9.752381 0-14.628571 4.876191-9.752381 4.87619-14.628571 12.190476-17.066667 21.942857-2.438095 9.752381-4.87619 17.066667-2.438095 26.819048-2.438095 4.87619 0 9.752381 4.87619 17.066666z" p-id="2310" fill="#ffffff"></path><path d="M4671.390476 529.066667c-2.438095-2.438095-4.87619-4.87619-19.504762-7.314286-17.066667 0-34.133333-2.438095-46.323809-4.876191l-36.571429-7.314285c-12.190476-2.438095-21.942857-7.314286-31.695238-12.190476s-21.942857-12.190476-36.571428-21.942858c-9.752381-4.87619-19.504762-12.190476-29.257143-17.066666s-19.504762-12.190476-26.819048-17.066667c-9.752381-4.87619-17.066667-9.752381-24.380952-14.628571s-12.190476-7.314286-17.066667-9.752381v-36.571429l29.257143-7.314286c12.190476-2.438095 21.942857-4.87619 31.695238-7.314285 9.752381-2.438095 19.504762-2.438095 29.257143-4.876191 9.752381 0 14.628571-2.438095 21.942857-2.438095 14.628571 0 17.066667-2.438095 19.504762-4.87619 0-2.438095 2.438095-2.438095 0-4.876191 0-2.438095-4.87619-7.314286-19.504762-14.628571-4.87619-2.438095-12.190476-4.87619-17.066667-7.314286s-12.190476-4.87619-17.066666-4.876191h-7.314286c-2.438095 0-4.87619 0-7.314286 2.438096s-4.87619 4.87619-2.438095 7.314285c0 2.438095 2.438095 4.87619 7.314286 4.876191 0 0 2.438095 0 2.438095 2.438095h-7.314286c-4.87619 0-12.190476 2.438095-19.504762 4.876191l-21.942857 4.87619c-7.314286 2.438095-12.190476 2.438095-17.066667 4.876191v-9.752381-12.190477c14.628571-7.314286 26.819048-14.628571 36.571429-19.504762l24.380952-12.190476c12.190476-4.87619 19.504762-9.752381 21.942858-14.628571 2.438095-4.87619 2.438095-12.190476-2.438096-19.504762-12.190476-21.942857-17.066667-26.819048-21.942857-26.819048-9.752381 0-9.752381 14.628571-9.752381 19.504762s-2.438095 9.752381-4.87619 14.628572c-4.87619 4.87619-9.752381 9.752381-14.628572 12.190476-4.87619 2.438095-9.752381 7.314286-17.066666 12.190476-4.87619 2.438095-7.314286 4.87619-12.190477 9.752381 0-19.504762 2.438095-39.009524 2.438096-56.07619s2.438095-34.133333 2.438095-48.761905c9.752381-2.438095 19.504762-4.87619 26.819048-7.314286 9.752381-2.438095 17.066667-2.438095 21.942857 0 17.066667 2.438095 24.380952 0 29.257143-4.87619 2.438095-2.438095 2.438095-4.87619 0-7.314286-2.438095-4.87619-7.314286-9.752381-19.504762-14.628572-7.314286-2.438095-17.066667-4.87619-29.257143-2.438095-9.752381 0-19.504762 2.438095-26.819048 4.876191 2.438095-9.752381 2.438095-19.504762 7.314286-24.380953 9.752381-21.942857 9.752381-41.447619 0-53.638095s-19.504762-17.066667-29.257143-17.066667-19.504762 7.314286-24.380952 19.504762c-4.87619 9.752381-4.87619 14.628571-4.876191 19.504762l4.876191 4.876191c2.438095 0 4.87619-2.438095 7.314285-4.876191s4.87619-4.87619 7.314286-4.87619h7.314286s2.438095 2.438095 2.438095 9.752381 0 14.628571-2.438095 19.504762c0 2.438095-2.438095 9.752381-2.438095 19.504761 0 7.314286-2.438095 17.066667-2.438096 29.257143-7.314286 2.438095-14.628571 7.314286-24.380952 9.752381-12.190476 4.87619-17.066667 4.87619-19.504762 4.876191-12.190476 2.438095-19.504762 2.438095-26.819048 2.438095s-14.628571-2.438095-21.942857-7.314286c-9.752381-4.87619-14.628571-4.87619-17.066666-4.87619l-2.438096 2.438095v2.438095c0 2.438095 0 4.87619 9.752381 14.628572 4.87619 4.87619 12.190476 9.752381 17.066667 12.190476s12.190476 4.87619 17.066667 7.314286c2.438095 0 9.752381 2.438095 19.504762 2.438095h2.438095c9.752381 0 19.504762-4.87619 34.133333-12.190476 2.438095-2.438095 4.87619-2.438095 7.314286-4.876191h2.438095c-2.438095 19.504762-2.438095 39.009524-4.87619 58.514286 0 21.942857-2.438095 39.009524-2.438096 53.638095l-21.942857 14.628572-21.942857 14.628571c-14.628571 12.190476-17.066667 14.628571-17.066667 19.504762l2.438096 2.438095h2.438095c2.438095 0 7.314286 0 29.257143-14.628571 4.87619-4.87619 12.190476-7.314286 17.066666-9.752381 2.438095-2.438095 7.314286-4.87619 9.752381-4.876191v14.628572l-21.942857 7.314285c-9.752381 2.438095-19.504762 7.314286-29.257143 12.190477s-19.504762 9.752381-29.257142 12.190476c-9.752381 4.87619-17.066667 9.752381-24.380953 12.190476-7.314286 4.87619-14.628571 9.752381-19.504762 12.190476l-14.628571 7.314286c-4.87619 2.438095-9.752381 2.438095-14.628572 2.438095h-14.628571c-14.628571-2.438095-19.504762 0-21.942857 2.438095 0 2.438095-2.438095 2.438095 0 4.876191 0 2.438095 2.438095 4.87619 14.628571 12.190476 12.190476 4.87619 24.380952 7.314286 39.009524 4.876191 14.628571-2.438095 24.380952-7.314286 36.571429-12.190477 7.314286-4.87619 17.066667-12.190476 26.819047-17.066666 7.314286-4.87619 14.628571-7.314286 21.942857-12.190477-2.438095 4.87619-4.87619 9.752381-4.87619 14.628572-4.87619 9.752381-9.752381 21.942857-19.504762 36.571428-7.314286 12.190476-17.066667 24.380952-26.819048 34.133334-4.87619 4.87619-9.752381 7.314286-12.190476 12.190476-4.87619 2.438095-9.752381 7.314286-14.628571 9.752381-4.87619 2.438095-9.752381 4.87619-17.066667 7.314286-7.314286 2.438095-12.190476 4.87619-21.942857 7.314285-9.752381 2.438095-19.504762 7.314286-17.066667 14.628572 0 4.87619 7.314286 7.314286 21.942857 4.87619 9.752381-2.438095 21.942857-4.87619 34.133334-9.752381 12.190476-4.87619 21.942857-9.752381 29.257143-14.628571l17.066666-17.066667c7.314286-7.314286 12.190476-14.628571 19.504762-24.380952s14.628571-19.504762 21.942857-31.695238c7.314286-9.752381 12.190476-21.942857 17.066667-34.133334 0 0 2.438095 0 2.438095 2.438096 2.438095 0 4.87619 2.438095 9.752381 2.438095 2.438095 0 7.314286 2.438095 12.190476 4.87619v131.657143c0 21.942857-2.438095 26.819048-2.438095 26.819048s-4.87619 0-12.190476-7.314286c-4.87619-4.87619-12.190476-9.752381-19.504762-17.066667-7.314286-4.87619-14.628571-12.190476-19.504762-17.066666-7.314286-4.87619-9.752381-7.314286-14.628571-7.314286h-2.438096c-2.438095 0-2.438095 2.438095-4.87619 2.438095-2.438095 2.438095 0 7.314286 7.314286 14.628572 2.438095 4.87619 7.314286 9.752381 14.628571 17.066666 7.314286 7.314286 12.190476 14.628571 19.504762 21.942858s12.190476 14.628571 19.504762 21.942857c4.87619 7.314286 9.752381 12.190476 12.190476 14.628571 4.87619 4.87619 9.752381 9.752381 14.628572 9.752381 9.752381 0 14.628571-12.190476 17.066666-17.066667 2.438095-9.752381 4.87619-19.504762 4.876191-31.695238s0-26.819048-2.438096-43.885714v-12.190476-24.380953-34.133333-29.257143c7.314286 4.87619 14.628571 9.752381 24.380953 14.628572 12.190476 7.314286 24.380952 17.066667 39.009524 26.819047 9.752381 7.314286 19.504762 12.190476 29.257143 19.504762 7.314286 4.87619 17.066667 12.190476 24.380952 17.066667s14.628571 9.752381 29.257143 12.190476c12.190476 2.438095 24.380952 4.87619 36.571428 4.876191h36.571429c12.190476 0 24.380952-2.438095 31.695238-4.876191s9.752381-2.438095 12.190476-4.87619v-9.752381z m-292.571428-124.342857c-2.438095 0-4.87619-2.438095-7.314286-2.438096s-4.87619-2.438095-7.314286-2.438095v-2.438095c2.438095-2.438095 7.314286-2.438095 9.752381-2.438095 2.438095 0 4.87619-2.438095 4.876191-2.438096v12.190477z" p-id="2311" fill="#ffffff"></path><path d="M160.914286 955.733333s70.704762-12.190476 195.047619-29.257143c60.952381-7.314286 136.533333-19.504762 224.304762-29.257142 85.333333-9.752381 182.857143-21.942857 290.133333-34.133334s221.866667-21.942857 343.771429-34.133333c121.904762-9.752381 251.12381-24.380952 385.219047-31.695238 65.828571-4.87619 134.095238-9.752381 202.361905-14.628572 68.266667-4.87619 138.971429-7.314286 207.238095-12.190476 138.971429-9.752381 282.819048-14.628571 424.228572-21.942857s285.257143-9.752381 426.666666-14.628571 277.942857-4.87619 412.038096-7.314286c134.095238-2.438095 263.314286 0 385.219047 0s238.933333 2.438095 346.209524 4.87619 204.8 2.438095 292.571429 7.314286c87.771429 2.438095 163.352381 7.314286 224.304761 9.752381 124.342857 4.87619 195.047619 9.752381 195.047619 9.752381h-195.047619c-63.390476 0-138.971429 0-224.304761-2.438095h-292.571429c-107.27619 0-221.866667 0-346.209524 2.438095-121.904762 2.438095-251.12381 4.87619-385.219047 7.314286-134.095238 2.438095-270.628571 4.87619-412.038096 9.752381-138.971429 4.87619-282.819048 9.752381-424.228571 17.066666s-285.257143 12.190476-424.228572 19.504762c-70.704762 4.87619-138.971429 7.314286-207.238095 12.190476s-136.533333 9.752381-202.361905 12.190477c-134.095238 9.752381-263.314286 17.066667-385.219047 26.819047-121.904762 9.752381-236.495238 17.066667-343.771429 26.819048-107.27619 9.752381-204.8 17.066667-290.133333 24.380952s-160.914286 14.628571-224.304762 21.942857c-126.780952 12.190476-197.485714 19.504762-197.485714 19.504762z" p-id="2312" fill="#ffffff"></path></svg>